<svg width="85" height="85" viewBox="0 0 85 85" fill="none" xmlns="http://www.w3.org/2000/svg">
<rect x="0.339844" y="0.5" width="84" height="84" rx="12" fill="white"/>
<g clip-path="url(#clip0_238_4393)">
<circle cx="42.3398" cy="42.5" r="30" fill="#3290E8"/>
<path fill-rule="evenodd" clip-rule="evenodd" d="M55.1973 25.3572H29.483C27.1467 25.3535 25.2014 27.3109 25.1973 29.6429V55.3572C25.1973 57.7238 27.1166 59.6429 29.483 59.6429H55.1973C57.5336 59.6465 59.4789 57.6892 59.483 55.3572V29.6429C59.483 27.2762 57.5646 25.3572 55.1973 25.3572ZM46.9106 31.6429C46.9106 31.0124 47.4232 30.5 48.0544 30.5C48.6856 30.5 49.1973 31.0124 49.1973 31.6429V46.9124C49.1973 47.5429 48.6847 48.0553 48.0544 48.0553C47.4494 48.0558 46.9131 47.5195 46.9116 46.9124L46.9106 31.6429ZM41.1963 31.0648C41.1963 30.4334 41.7089 29.9219 42.3401 29.9219C42.9714 29.9219 43.4839 30.4334 43.4839 31.0648V47.6362C43.4839 48.2677 42.9714 48.7791 42.3401 48.7791C41.7351 48.7796 41.1988 48.2433 41.1973 47.6362L41.1963 31.0648ZM35.483 31.6429C35.483 31.0124 35.9956 30.5 36.6258 30.5C37.2571 30.5 37.7687 31.0124 37.7687 31.6429V46.9124C37.7687 47.5429 37.2571 48.0553 36.6258 48.0553C36.0208 48.0558 35.4845 47.5195 35.483 46.9124V31.6429ZM29.7687 33.9286C29.7687 33.2972 30.2803 32.7858 30.9116 32.7858C31.5428 32.7858 32.0544 33.2972 32.0544 33.9286V44.2077C32.0544 44.8391 31.5418 45.3505 30.9116 45.3505C30.2885 45.3516 29.7697 44.8296 29.7687 44.2077V33.9286ZM54.5129 51.361C54.3373 51.5134 50.1028 55.0648 42.3401 55.0648C34.5774 55.0648 30.3458 51.5124 30.1674 51.36C29.6952 50.9555 29.6393 50.2214 30.044 49.7496C30.4385 49.2903 31.1913 49.2315 31.6519 49.6238C31.7184 49.68 35.4991 52.7791 42.3392 52.7791C49.2647 52.7791 52.9875 49.6572 53.0236 49.6267C53.4836 49.2314 54.2392 49.289 54.6344 49.7496C55.0417 50.2205 54.9866 50.9566 54.5129 51.361ZM54.9116 44.2086C54.9116 44.8391 54.399 45.3515 53.7687 45.3515C53.1456 45.3525 52.6269 44.8305 52.6258 44.2086V33.9286C52.6258 33.2972 53.1375 32.7858 53.7677 32.7858C54.399 32.7858 54.9116 33.2972 54.9116 33.9286V44.2086Z" fill="white"/>
</g>
<defs>
<clipPath id="clip0_238_4393">
<rect width="60" height="60" fill="white" transform="translate(12.3398 12.5)"/>
</clipPath>
</defs>
</svg>
