<svg width="85" height="85" viewBox="0 0 85 85" fill="none" xmlns="http://www.w3.org/2000/svg">
<rect x="0.339844" y="0.5" width="84" height="84" rx="12" fill="white"/>
<g clip-path="url(#clip0_238_4399)">
<path d="M42.3398 12.5C25.793 12.5 12.3398 25.9531 12.3398 42.5C12.3398 59.0469 25.793 72.5 42.3398 72.5C58.8867 72.5 72.3398 59.0469 72.3398 42.5C72.3398 25.9531 58.8867 12.5 42.3398 12.5Z" fill="white"/>
<path d="M42.3438 21.0715C29.654 21.0715 19.7217 37.788 18.7676 51.9061C22.7462 59.059 32.3542 61.7858 42.3438 61.7858C52.3334 61.7858 61.9318 59.0985 65.9104 51.9061C64.9659 37.788 55.024 21.0715 42.3438 21.0715Z" fill="#B3DCFF"/>
<path d="M57.0283 38.628C54.2423 34.9033 50.6929 30.9514 48.6321 30.9514C46.5712 30.9514 40.8179 41.5029 38.1368 41.5029C35.4557 41.5029 34.12 36.7014 30.876 36.7212C26.4489 36.7212 22.1172 50.207 22.1172 50.207C22.1172 50.207 23.9109 58.4368 42.6688 58.4368C61.4268 58.4368 62.9247 50.3453 62.9247 50.3453C61.563 46.1443 59.5733 42.1905 57.0283 38.628Z" fill="#5ECC62"/>
<path d="M32.2871 49.0804C32.2871 48.5939 32.4264 48.1182 32.6875 47.7137C32.9485 47.3091 33.3196 46.9938 33.7537 46.8076C34.1878 46.6214 34.6655 46.5727 35.1263 46.6676C35.5872 46.7626 36.0105 46.9968 36.3428 47.3409C36.675 47.6849 36.9013 48.1233 36.993 48.6005C37.0846 49.0777 37.0376 49.5723 36.8578 50.0218C36.6779 50.4713 36.3734 50.8556 35.9828 51.1259C35.5921 51.3962 35.1327 51.5405 34.6629 51.5405C34.0328 51.5405 33.4285 51.2813 32.983 50.8199C32.5374 50.3586 32.2871 49.7329 32.2871 49.0804ZM47.6388 49.0804C47.6388 49.567 47.7782 50.0426 48.0392 50.4471C48.3003 50.8517 48.6713 51.167 49.1054 51.3532C49.5395 51.5394 50.0172 51.5881 50.4781 51.4932C50.9389 51.3983 51.3622 51.164 51.6945 50.8199C52.0267 50.4759 52.253 50.0375 52.3447 49.5603C52.4363 49.0831 52.3893 48.5885 52.2095 48.139C52.0297 47.6895 51.7252 47.3053 51.3345 47.035C50.9438 46.7646 50.4845 46.6204 50.0146 46.6204C49.7026 46.6204 49.3937 46.684 49.1054 46.8076C48.8172 46.9313 48.5553 47.1125 48.3347 47.3409C48.1141 47.5693 47.9391 47.8405 47.8197 48.139C47.7003 48.4375 47.6388 48.7574 47.6388 49.0804ZM47.2095 52.6865C47.2801 52.5108 47.2845 52.314 47.2218 52.1351C47.1592 51.9562 47.0341 51.8081 46.8711 51.72C46.7082 51.6319 46.5193 51.6103 46.3417 51.6593C46.1641 51.7084 46.0108 51.8246 45.9119 51.985C45.5363 52.5896 45.0125 53.0801 44.394 53.4065C43.7754 53.7328 43.0843 53.8832 42.3912 53.8424C41.6788 53.8595 40.9731 53.6956 40.3361 53.3649C39.699 53.0342 39.15 52.5468 38.7369 51.9455C38.6283 51.791 38.4675 51.6845 38.2865 51.6471C38.1055 51.6098 37.9176 51.6443 37.76 51.744C37.6025 51.8436 37.487 52.0009 37.4364 52.1847C37.3858 52.3685 37.4039 52.5653 37.487 52.7359C38.0315 53.5583 38.7646 54.228 39.6205 54.685C40.4764 55.1419 41.4284 55.3718 42.3912 55.354C43.3517 55.3985 44.3059 55.1742 45.1538 54.7048C46.0016 54.2354 46.7117 53.5382 47.2095 52.6865Z" fill="black"/>
<path d="M38.4706 46.0279C35.5606 46.0279 34.0626 43.0639 33.2516 41.2164C32.5265 39.5665 32.3929 36.9484 30.332 36.8792C30.5166 36.7992 30.714 36.7556 30.914 36.7508C34.158 36.7508 35.532 41.5326 38.1749 41.5326C40.8178 41.5326 46.5806 30.9514 48.632 30.9514C49.0884 30.9765 49.5327 31.1119 49.9296 31.3466C49.7259 31.3069 49.5161 31.3175 49.3171 31.3776C49.1182 31.4377 48.9357 31.5455 48.7846 31.6924C48.1263 32.3939 42.0772 46.0279 38.4706 46.0279Z" fill="#00AD45"/>
</g>
<defs>
<clipPath id="clip0_238_4399">
<rect width="60" height="60" fill="white" transform="translate(12.3398 12.5)"/>
</clipPath>
</defs>
</svg>
