<svg width="85" height="85" viewBox="0 0 85 85" fill="none" xmlns="http://www.w3.org/2000/svg">
<rect x="0.339844" y="0.5" width="84" height="84" rx="12" fill="white"/>
<g clip-path="url(#clip0_238_4175)">
<path d="M55.5391 43.837C58.6959 42.0239 61.8442 40.196 65.0118 38.4016C68.0184 36.6982 71.5558 38.2692 72.2373 41.5842C72.6318 43.5019 71.7756 45.5735 70.0443 46.5825C64.3682 49.8902 58.6839 53.1848 52.9713 56.4291C51.2031 57.4331 49.3818 57.2484 47.7705 56.018C46.1336 54.7687 45.6177 53.0456 46.0016 51.0401C46.4399 49.5134 47.443 48.4927 48.8111 47.7291C51.0731 46.4667 53.2982 45.1378 55.5391 43.837Z" fill="#FABC05"/>
<path d="M57.8572 42.5184C54.7083 40.6912 51.5515 38.8783 48.4137 37.0326C45.4351 35.2804 45.0272 31.4315 47.5571 29.1834C49.0205 27.8833 51.2426 27.5887 52.9822 28.5836C58.685 31.8454 64.3803 35.1211 70.0461 38.4461C71.7997 39.4753 72.5501 41.1452 72.2907 43.1559C72.027 45.1978 70.7928 46.5061 68.8641 47.1766C67.3226 47.5605 65.9373 47.2019 64.5919 46.3989C62.3675 45.0712 60.1041 43.8084 57.8572 42.5184Z" fill="#109D58"/>
<path d="M29.1567 41.2257C27.1361 42.3736 25.1144 43.5195 23.096 44.671C21.9152 45.3446 20.7475 46.0411 19.5607 46.7035C17.1693 48.0383 14.3282 47.2559 12.9724 44.9049C11.6784 42.6615 12.4221 39.7529 14.725 38.4085C20.3559 35.1218 26.0013 31.8591 31.6671 28.6329C33.4047 27.6434 35.2075 27.7679 36.8144 28.9507C38.5103 30.1993 39.0656 31.9561 38.6847 34.0158C38.4485 34.5141 38.3074 35.0984 37.9537 35.491C37.3783 36.1297 36.7244 36.7411 35.9964 37.1902C33.7436 38.5793 31.4404 39.8867 29.1567 41.2257Z" fill="#E94436"/>
<path d="M26.839 42.5133C28.8436 43.689 30.8468 44.8672 32.8533 46.0395C34.0268 46.7253 35.2139 47.3883 36.3809 48.0847C38.7326 49.4886 39.4758 52.34 38.1176 54.6896C36.8215 56.9321 33.931 57.7426 31.6151 56.42C25.9533 53.1868 20.3051 49.9294 14.6782 46.6358C12.9525 45.6256 12.159 44.0021 12.38 42.019C12.6132 39.9258 13.857 38.5667 15.8311 37.8666C16.3807 37.8223 16.9573 37.6522 17.4743 37.7623C18.315 37.9414 19.1717 38.2018 19.9245 38.6077C22.254 39.864 24.5377 41.2051 26.839 42.5133Z" fill="#4385F3"/>
</g>
<defs>
<clipPath id="clip0_238_4175">
<rect width="60" height="60" fill="white" transform="translate(12.3398 12.5)"/>
</clipPath>
</defs>
</svg>
