<svg width="85" height="85" viewBox="0 0 85 85" fill="none" xmlns="http://www.w3.org/2000/svg">
<rect x="0.339844" y="0.5" width="84" height="84" rx="12" fill="white"/>
<g clip-path="url(#clip0_238_4167)">
<mask id="mask0_238_4167" style="mask-type:alpha" maskUnits="userSpaceOnUse" x="12" y="15" width="61" height="55">
<path d="M71.6193 39.7431L59.2916 18.303C58.3483 16.6302 56.59 15.5817 54.6698 15.5469H30.0096C28.0892 15.5807 26.3304 16.6295 25.3878 18.303L13.0554 39.6868C12.1013 41.347 12.1013 43.389 13.0554 45.0492L25.3832 66.6111C26.3161 68.3077 28.0701 69.391 30.0049 69.4657H54.6651C56.5998 69.3993 58.357 68.3204 59.2916 66.6251L71.6193 45.1851C72.58 43.4983 72.58 41.4299 71.6193 39.7431Z" fill="white"/>
</mask>
<g mask="url(#mask0_238_4167)">
<path d="M71.6193 39.7431L59.2916 18.303C58.3483 16.6302 56.59 15.5817 54.6698 15.5469H30.0096C28.0892 15.5807 26.3304 16.6295 25.3878 18.303L13.0554 39.6868C12.1013 41.347 12.1013 43.389 13.0554 45.0492L25.3832 66.6111C26.3161 68.3077 28.0701 69.391 30.0049 69.4657H54.6651C56.5998 69.3993 58.357 68.3204 59.2916 66.6251L71.6193 45.1851C72.58 43.4983 72.58 41.4299 71.6193 39.7431Z" fill="#4285F4"/>
<path opacity="0.07" d="M56.2072 35.4059L54.5075 37.2597L54.8904 48.2748L53.2794 50.6095L52.3456 49.6756H53.2047V45.8561L49.0816 41.733L45.9652 43.2906L35.6291 32.9312L30.6515 35.5974L30.0352 40.7617L31.7815 50.2126L34.3123 52.6921L33.159 54.331L48.217 69.7431H54.5075C56.4347 69.6769 58.522 68.4139 59.453 66.7252L69.7137 48.9119L56.2072 35.4059Z" fill="black"/>
<path d="M33.1597 54.3309L35.6299 51.8608L31.927 48.158V36.6339L35.6299 32.9311L33.1597 30.4609L28.2148 35.4058V49.386L33.1597 54.3309Z" fill="white"/>
<path d="M36.9834 44.1471C37.9505 44.1471 38.7345 43.3631 38.7345 42.396C38.7345 41.429 37.9505 40.645 36.9834 40.645C36.0164 40.645 35.2324 41.429 35.2324 42.396C35.2324 43.3631 36.0164 44.1471 36.9834 44.1471Z" fill="white"/>
<path d="M42.2217 44.1471C43.1888 44.1471 43.9728 43.3631 43.9728 42.396C43.9728 41.429 43.1888 40.645 42.2217 40.645C41.2547 40.645 40.4707 41.429 40.4707 42.396C40.4707 43.3631 41.2547 44.1471 42.2217 44.1471Z" fill="white"/>
<path d="M47.462 44.1471C48.429 44.1471 49.213 43.3631 49.213 42.396C49.213 41.429 48.429 40.645 47.462 40.645C46.4949 40.645 45.7109 41.429 45.7109 42.396C45.7109 43.3631 46.4949 44.1471 47.462 44.1471Z" fill="white"/>
<path d="M51.2631 30.4609L48.793 32.9311L52.4958 36.6339V48.158L48.793 51.8608L51.2631 54.3309L56.208 49.386V35.4058L51.2631 30.4609Z" fill="white"/>
</g>
</g>
<defs>
<clipPath id="clip0_238_4167">
<rect width="60" height="60" fill="white" transform="translate(12.3398 12.5)"/>
</clipPath>
</defs>
</svg>
