<svg width="85" height="85" viewBox="0 0 85 85" fill="none" xmlns="http://www.w3.org/2000/svg">
<rect x="0.339844" y="0.5" width="84" height="84" rx="12" fill="white"/>
<g clip-path="url(#clip0_238_4161)">
<path d="M69.3537 64.992C69.3649 67.1298 68.4581 69.1696 66.8635 70.5935C65.2689 72.0174 63.1399 72.6884 61.017 72.4363C57.1969 71.871 54.3975 68.5466 54.4905 64.6861V20.3008C54.3983 16.436 57.2046 13.1101 61.0298 12.5506C63.1506 12.3024 65.2761 12.9752 66.8677 14.3987C68.4594 15.8221 69.3644 17.8596 69.3537 19.9949V64.992Z" fill="#F9AB00"/>
<path d="M22.5839 57.637C26.6882 57.637 30.0154 60.9642 30.0154 65.0685C30.0154 69.1728 26.6882 72.5001 22.5839 72.5001C18.4796 72.5001 15.1523 69.1728 15.1523 65.0685C15.1523 60.9642 18.4796 57.637 22.5839 57.637ZM42.1379 35.1129C38.0141 35.339 34.8146 38.798 34.9103 42.9269V62.8888C34.9103 68.3063 37.294 71.595 40.7867 72.2961C42.9793 72.7405 45.2556 72.1752 46.9856 70.7566C48.7156 69.338 49.7159 67.2165 49.7096 64.9793V42.5827C49.7133 40.5827 48.9134 38.6651 47.4896 37.2605C46.0659 35.856 44.1376 35.0822 42.1379 35.1129Z" fill="#E37400"/>
</g>
<defs>
<clipPath id="clip0_238_4161">
<rect width="60" height="60" fill="white" transform="translate(12.3398 12.5)"/>
</clipPath>
</defs>
</svg>
