<svg width="85" height="85" viewBox="0 0 85 85" fill="none" xmlns="http://www.w3.org/2000/svg">
<rect x="0.339844" y="0.5" width="84" height="84" rx="12" fill="white"/>
<g clip-path="url(#clip0_238_4391)">
<path d="M15.8555 70.0078C15.8555 71.4815 16.7147 72.5 18.1746 72.5H45.7951C42.0883 65.1784 37.9382 58.4997 32.7724 52.2388C27.4277 55.5898 21.7784 58.4875 15.8555 60.8492V70.0078Z" fill="#F15713"/>
<path d="M15.8555 24.4014C21.7634 26.7556 27.3995 29.6448 32.7312 32.9837C37.9148 26.7115 42.4031 19.8404 46.1193 12.5H18.734C17.1439 12.5 15.8555 13.801 15.8555 15.4061" fill="#69AAB5"/>
<path d="M32.7731 52.2387C37.3626 49.3616 41.7273 46.1561 45.8146 42.6248C41.7151 39.0832 37.3345 35.8682 32.7338 32.9846C29.9377 36.3685 26.9336 39.5666 23.7637 42.5872C26.9495 45.6248 29.9667 48.8388 32.7731 52.2387Z" fill="#FFB1A2"/>
<path d="M45.8138 42.6257C41.7268 46.1566 37.3625 49.3619 32.7734 52.2386C37.9392 58.4996 42.0892 65.1781 45.796 72.4998L66.5379 72.4999C68.4523 72.4999 69.1597 71.1417 68.4523 69.9223C62.4516 59.5857 54.7745 50.3698 45.8138 42.6257Z" fill="#F37036"/>
<path d="M46.1171 12.5031C42.4029 19.8391 37.9105 26.7156 32.7306 32.9846C37.3314 35.8682 41.7139 39.0832 45.8133 42.6249C54.9089 34.7615 62.6843 25.3861 68.7234 14.8598C69.3231 13.8141 68.5547 12.5 67.3553 12.5L46.1171 12.5031Z" fill="#85B8C1"/>
<path d="M15.8555 49.4387C18.5991 47.2797 21.2368 44.996 23.7639 42.5883C21.2368 40.1815 18.5991 37.8949 15.8555 35.7388V49.4387Z" fill="#F76F6D"/>
<path d="M15.8555 24.4014C21.7634 26.7556 27.3995 29.6448 32.7312 32.9836C29.9352 36.3675 26.933 39.5667 23.7631 42.5872C21.2361 40.1807 18.599 37.8949 15.8556 35.739L15.8555 24.4014Z" fill="#F39D90"/>
<path d="M32.7726 52.2388C29.9663 48.839 26.9489 45.6249 23.7631 42.5874C21.2359 44.9951 18.5991 47.28 15.8555 49.4389V60.849C21.7783 58.4873 27.4279 55.5898 32.7726 52.2388Z" fill="#FA8176"/>
</g>
<defs>
<clipPath id="clip0_238_4391">
<rect width="60" height="60" fill="white" transform="translate(12.3398 12.5)"/>
</clipPath>
</defs>
</svg>
