<svg width="85" height="85" viewBox="0 0 85 85" fill="none" xmlns="http://www.w3.org/2000/svg">
<rect x="0.339844" y="0.5" width="84" height="84" rx="12" fill="white"/>
<g clip-path="url(#clip0_238_4171)">
<path d="M40.9727 12.596C41.8367 12.524 42.6767 12.5 43.5407 12.5C59.1647 13.076 71.7167 25.604 72.3407 41.228V64.82C72.3167 69.092 68.8367 72.524 64.5887 72.5001C60.7007 71.9 57.7247 68.732 57.3647 64.82V41.228C56.7167 32.996 49.5167 26.828 41.2847 27.476C41.1887 27.476 41.0927 27.5 40.9967 27.5" fill="#FBBC04"/>
<path d="M72.3393 64.988C72.3393 69.116 68.9793 72.476 64.8513 72.476C60.7233 72.476 57.3633 69.116 57.3633 64.988C57.3633 60.86 60.7233 57.5 64.8513 57.5C68.9793 57.5 72.3393 60.86 72.3393 64.988Z" fill="#4285F4"/>
<path d="M41.4038 72.236C45.6518 72.284 49.1318 68.9 49.1798 64.652C49.1798 64.628 49.1798 64.628 49.1798 64.604C49.0598 60.476 45.6038 57.212 41.4758 57.332C41.4278 57.332 41.3558 57.332 41.3078 57.332C33.1238 56.708 26.9558 49.604 27.5318 41.396V41.276C28.1318 33.884 34.0118 28.052 41.4038 27.5C45.5318 27.668 49.0118 24.452 49.1798 20.324C49.1798 20.276 49.1798 20.252 49.1798 20.204C49.1318 15.956 45.6518 12.524 41.4038 12.5715H40.8758C24.9638 13.316 12.4358 26.372 12.3398 42.308V42.428C12.3398 61.124 28.7318 72.26 40.9478 72.26H41.4038V72.236Z" fill="#EA4335"/>
</g>
<defs>
<clipPath id="clip0_238_4171">
<rect width="60" height="60" fill="white" transform="translate(12.3398 12.5)"/>
</clipPath>
</defs>
</svg>
