<svg width="85" height="85" viewBox="0 0 85 85" fill="none" xmlns="http://www.w3.org/2000/svg">
<rect x="0.339844" y="0.5" width="84" height="84" rx="12" fill="white"/>
<g clip-path="url(#clip0_238_4403)">
<path fill-rule="evenodd" clip-rule="evenodd" d="M21.7718 68.9356L14.8931 60.3663C13.2381 58.3045 12.3398 55.7692 12.3398 53.1597V22.13C12.3398 18.2213 15.467 14.9779 19.5013 14.7025L51.4041 12.5244C53.7218 12.3661 56.0255 12.9822 57.9293 14.2694L69.1383 21.8478C71.1447 23.2044 72.3398 25.422 72.3398 27.7885V63.0663C72.3398 66.8915 69.265 70.0586 65.3151 70.3017L29.9065 72.4813C26.7545 72.6754 23.7078 71.3474 21.7718 68.9356Z" fill="white"/>
<path d="M32.836 37.6574V37.2512C32.836 36.2214 33.6608 35.3673 34.7238 35.2964L42.4664 34.7794L53.1739 50.547V36.7083L50.4179 36.3409V36.1479C50.4179 35.1061 51.2615 34.2464 52.338 34.1912L59.383 33.8303V34.8442C59.383 35.3201 59.0291 35.7272 58.544 35.8092L56.8487 36.096V58.5074L54.721 59.2391C52.9435 59.8504 50.9646 59.196 49.947 57.6605L39.552 41.9744V56.9459L42.7515 57.5583L42.707 57.855C42.5673 58.7847 41.7647 59.4877 40.7938 59.5309L32.836 59.8851C32.7308 58.8855 33.4801 57.9911 34.5136 57.8825L35.5604 57.7726V37.8105L32.836 37.6574Z" fill="black"/>
<path fill-rule="evenodd" clip-rule="evenodd" d="M51.6896 16.4336L19.7868 18.6117C17.8758 18.7422 16.3945 20.2785 16.3945 22.13V53.1598C16.3945 54.8994 16.9934 56.5896 18.0967 57.9641L24.9754 66.5334C26.0876 67.9189 27.8378 68.6818 29.6485 68.5703L65.0571 66.3907C66.8719 66.279 68.2847 64.8239 68.2847 63.0663V27.7885C68.2847 26.7012 67.7356 25.6823 66.8137 25.059L55.6048 17.4806C54.4624 16.7083 53.0803 16.3386 51.6896 16.4336ZM21.3688 22.614C20.9251 22.2855 21.1362 21.6011 21.6936 21.5611L51.9042 19.3942C52.8668 19.3252 53.8232 19.5902 54.6017 20.1418L60.6632 24.4363C60.8933 24.5993 60.7854 24.9513 60.5005 24.9668L28.5076 26.7067C27.5394 26.7594 26.5837 26.4749 25.8139 25.905L21.3688 22.614ZM27.007 32.1614C27.007 31.1221 27.8467 30.2635 28.9204 30.2051L62.7459 28.3629C63.7924 28.3059 64.6733 29.1107 64.6733 30.1236V60.6705C64.6733 61.708 63.8366 62.5656 62.765 62.6266L29.1536 64.5391C27.989 64.6053 27.007 63.7104 27.007 62.583V32.1614Z" fill="black"/>
</g>
<defs>
<clipPath id="clip0_238_4403">
<rect width="60" height="60" fill="white" transform="translate(12.3398 12.5)"/>
</clipPath>
</defs>
</svg>
