<svg width="85" height="85" viewBox="0 0 85 85" fill="none" xmlns="http://www.w3.org/2000/svg">
<rect x="0.339844" y="0.5" width="84" height="84" rx="12" fill="white"/>
<g clip-path="url(#clip0_238_4173)">
<path d="M64.8446 55.1934H43.0575C37.7885 55.1934 34.8379 58.8816 34.8379 62.807C34.8379 66.4294 37.3406 70.4206 43.0575 70.4206H64.8446V55.1934Z" fill="#669DF6"/>
<path d="M64.8447 70.4074C68.9841 70.4074 72.3398 66.9987 72.3398 62.7938C72.3398 58.5889 68.9841 55.1802 64.8447 55.1802C60.7053 55.1802 57.3496 58.5889 57.3496 62.7938C57.3496 66.9987 60.7053 70.4074 64.8447 70.4074Z" fill="#1A73E8"/>
<path d="M42.3465 34.8948H20.5594C15.2905 34.8948 12.3398 38.583 12.3398 42.5084C12.3398 46.1308 14.8426 50.122 20.5594 50.122H42.3465V34.8948Z" fill="#669DF6"/>
<path d="M42.3466 50.122C46.4861 50.122 49.8417 46.7133 49.8417 42.5084C49.8417 38.3035 46.4861 34.8948 42.3466 34.8948C38.2072 34.8948 34.8516 38.3035 34.8516 42.5084C34.8516 46.7133 38.2072 50.122 42.3466 50.122Z" fill="#1A73E8"/>
<path d="M64.8446 14.6094H43.0575C37.7885 14.6094 34.8379 18.2976 34.8379 22.223C34.8379 25.8454 37.3406 29.8366 43.0575 29.8366H64.8446V14.6094Z" fill="#669DF6"/>
<path d="M64.8447 29.8366C68.9841 29.8366 72.3398 26.4279 72.3398 22.223C72.3398 18.0181 68.9841 14.6094 64.8447 14.6094C60.7053 14.6094 57.3496 18.0181 57.3496 22.223C57.3496 26.4279 60.7053 29.8366 64.8447 29.8366Z" fill="#1A73E8"/>
</g>
<defs>
<clipPath id="clip0_238_4173">
<rect width="60" height="60" fill="white" transform="translate(12.3398 12.5)"/>
</clipPath>
</defs>
</svg>
