<svg width="85" height="85" viewBox="0 0 85 85" fill="none" xmlns="http://www.w3.org/2000/svg">
<rect x="0.339844" y="0.5" width="84" height="84" rx="12" fill="white"/>
<g clip-path="url(#clip0_238_4165)">
<path d="M52.9336 31.9063C58.793 37.7656 58.793 47.2578 52.9336 53.1172C50.0039 56.0469 50.0039 60.8047 52.9336 63.7109C55.8633 66.6406 60.6211 66.6406 63.5508 63.7109C75.2695 51.9922 75.2695 33.0078 63.5508 21.2891L52.9336 31.9063Z" fill="#EA4335"/>
<path d="M63.5273 21.2891C51.8086 9.57031 32.8477 9.57031 21.1289 21.2891C9.41016 33.0078 9.41016 51.9922 21.1289 63.7109L31.7461 53.1172C25.8867 47.2578 25.8867 37.7656 31.7461 31.9062C37.6055 26.0469 47.0977 26.0469 52.957 31.9062C55.8867 34.8359 60.6445 34.8359 63.5742 31.9062C66.457 28.9766 66.457 24.2188 63.5273 21.2891Z" fill="url(#paint0_linear_238_4165)"/>
<path d="M63.5273 63.7109L52.9102 53.1172C47.0508 58.9766 37.5586 58.9766 31.6992 53.1172L21.082 63.7109C32.8477 75.4297 51.8086 75.4297 63.5273 63.7109Z" fill="#FBBC04"/>
<path d="M52.9336 53.1172C55.8633 50.1875 60.5977 50.1875 63.5273 53.1172C66.457 56.0469 66.457 60.8047 63.5273 63.7344C60.5977 66.6641 55.8633 66.6641 52.9336 63.7344C50.0039 60.8047 50.0039 56.0469 52.9336 53.1172Z" fill="#EA4335"/>
<path d="M21.1289 53.1172C24.0586 50.1875 28.793 50.1875 31.7227 53.1172C34.6523 56.0469 34.6523 60.8047 31.7227 63.7344C28.793 66.6641 24.0586 66.6641 21.1289 63.7344C18.1992 60.8047 18.1992 56.0469 21.1289 53.1172Z" fill="#34A853"/>
</g>
<defs>
<linearGradient id="paint0_linear_238_4165" x1="12.3398" y1="38.1055" x2="65.7301" y2="38.1055" gradientUnits="userSpaceOnUse">
<stop stop-color="#246FDB"/>
<stop offset="0.0552" stop-color="#2973DF"/>
<stop offset="0.2781" stop-color="#377DEB"/>
<stop offset="0.5491" stop-color="#3F83F2"/>
<stop offset="1" stop-color="#4285F4"/>
</linearGradient>
<clipPath id="clip0_238_4165">
<rect width="60" height="60" fill="white" transform="translate(12.3398 12.5)"/>
</clipPath>
</defs>
</svg>
