<svg width="85" height="85" viewBox="0 0 85 85" fill="none" xmlns="http://www.w3.org/2000/svg">
<rect x="0.339844" y="0.5" width="84" height="84" rx="12" fill="white"/>
<g clip-path="url(#clip0_238_4397)">
<path d="M17.9744 60.226C15.9971 60.226 14.3943 58.588 14.3943 56.5669C14.3943 54.5461 15.9971 52.9078 17.9744 52.9078C19.9517 52.9078 21.5542 54.5461 21.5542 56.5669C21.5542 58.588 19.9517 60.226 17.9744 60.226ZM21.5656 60.6902C21.5656 61.0252 22.1397 61.9665 22.8433 61.9665H23.299C23.4757 61.9665 23.6203 61.8218 23.6203 61.6452V51.6318H23.6184C23.6092 51.4632 23.4696 51.3281 23.299 51.3281H21.8871C21.7163 51.3281 21.5769 51.4632 21.5673 51.6318H21.5656V52.4456C20.7005 51.3799 19.3366 50.9378 17.9688 50.9378C14.8599 50.9378 12.3398 53.4579 12.3398 56.5669C12.3398 59.6759 14.8599 62.1963 17.9688 62.1963C19.3366 62.1963 20.8272 61.6657 21.5655 60.6888L21.5656 60.6902ZM26.9936 59.2562C27.9361 59.9089 28.965 60.226 29.9536 60.226C30.8956 60.226 31.8692 59.7377 31.8692 58.888C31.8692 57.7533 29.7474 57.5766 28.4144 57.1236C27.081 56.6706 25.9325 55.7338 25.9325 54.217C25.9325 51.8962 28.0006 50.9375 29.9307 50.9375C31.1537 50.9375 32.4156 51.3408 33.2336 51.9186C33.5155 52.1319 33.3438 52.3772 33.3438 52.3772L32.5629 53.4925C32.4751 53.6181 32.2932 53.7184 32.1014 53.5905C31.5753 53.2428 30.9894 52.9077 29.9307 52.9077C28.6202 52.9077 28.0437 53.4517 28.0437 54.1256C28.0437 54.9341 28.9657 55.1883 30.0456 55.464C31.9277 55.971 33.9805 56.5809 33.9805 58.888C33.9805 60.9328 32.0677 62.1967 29.9536 62.1967C28.3517 62.1967 26.9876 61.7398 25.8436 60.9004C25.6055 60.662 25.7718 60.4405 25.7718 60.4405L26.5489 59.331C26.707 59.1233 26.9063 59.1958 26.9936 59.2562ZM44.5694 60.6902C44.5694 61.0252 45.1434 61.9665 45.847 61.9665H46.3026C46.4794 61.9665 46.6241 61.8218 46.6241 61.6452V51.6318H46.6222C46.6127 51.4632 46.4733 51.3281 46.3026 51.3281H44.8907C44.7199 51.3281 44.5804 51.4632 44.5711 51.6318H44.5694V52.4456C43.7043 51.3799 42.3402 50.9378 40.9727 50.9378C37.8637 50.9378 35.3434 53.4579 35.3434 56.5669C35.3434 59.6759 37.8637 62.1963 40.9727 62.1963C42.3402 62.1963 43.8309 61.6657 44.5692 60.6888L44.5694 60.6902ZM40.9781 60.226C39.0007 60.226 37.398 58.588 37.398 56.5669C37.398 54.5461 39.0007 52.9078 40.9781 52.9078C42.9552 52.9078 44.558 54.5461 44.558 56.5669C44.558 58.588 42.9552 60.226 40.9781 60.226ZM59.2742 61.0344L59.2736 55.8531H59.2738C59.2738 52.9322 57.431 50.9618 54.4925 50.9618C53.0899 50.9618 51.9423 51.7729 51.5362 52.4695V52.4599L51.5338 52.4678C51.533 51.7627 50.9611 51.3522 50.2561 51.3522H49.8028C49.6259 51.3522 49.4814 51.4969 49.4814 51.6737V60.7153V60.7168V61.6876H49.4833C49.4924 61.8562 49.6322 61.9916 49.8028 61.9916H51.2147C51.2363 61.9916 51.2576 61.989 51.2781 61.9851C51.2876 61.9832 51.2961 61.9795 51.3051 61.9768C51.3158 61.9737 51.3267 61.9712 51.3366 61.967C51.3494 61.9618 51.3607 61.9547 51.3724 61.9482C51.3781 61.9448 51.3842 61.9423 51.3897 61.9389C51.4035 61.9297 51.4166 61.9187 51.4292 61.9075C51.4312 61.9053 51.4337 61.904 51.4357 61.902C51.4498 61.8885 51.4625 61.8738 51.4739 61.858L51.4741 61.8579C51.5094 61.8093 51.5308 61.7509 51.5343 61.6876H51.5362V55.7727C51.5362 54.204 52.808 52.9322 54.3768 52.9322C55.9456 52.9322 57.2174 54.204 57.2174 55.7727L57.2185 60.717L57.219 60.7153C57.219 60.7196 57.2197 60.7242 57.2197 60.7287V61.6876H57.2216C57.231 61.8562 57.3704 61.9916 57.5412 61.9916H58.9531C58.9749 61.9916 58.9958 61.989 59.0164 61.9851C59.0248 61.9833 59.0325 61.9799 59.0405 61.9779C59.0523 61.9745 59.0641 61.9715 59.0752 61.967C59.0866 61.9621 59.0972 61.9556 59.108 61.9495C59.1147 61.9458 59.1217 61.943 59.1281 61.9389C59.1413 61.93 59.1532 61.9197 59.1649 61.9096C59.1679 61.907 59.1713 61.9047 59.1741 61.9019C59.1875 61.8891 59.1992 61.8751 59.2103 61.8605C59.2109 61.8592 59.2119 61.8584 59.2128 61.8573C59.2476 61.8093 59.2688 61.7513 59.2726 61.6885C59.2726 61.6882 59.2727 61.6876 59.2727 61.6876H59.2744V61.0346L59.2742 61.0344ZM70.2854 60.6902C70.2854 61.0252 70.8588 61.9665 71.5625 61.9665H72.0184C72.195 61.9665 72.3398 61.8218 72.3398 61.6452V51.6318H72.3381C72.3287 51.4632 72.189 51.3281 72.0184 51.3281H70.6068C70.4354 51.3281 70.2965 51.4632 70.2871 51.6318H70.2854V52.4456C69.4197 51.3799 68.0561 50.9378 66.6882 50.9378C63.5795 50.9378 61.0592 53.4579 61.0592 56.5669C61.0592 59.6759 63.5795 62.1963 66.6882 62.1963C68.0561 62.1963 69.5466 61.6657 70.2845 60.6888L70.2854 60.6902ZM66.6942 60.226C64.7169 60.226 63.1141 58.588 63.1141 56.5669C63.1141 54.5461 64.7169 52.9078 66.6942 52.9078C68.6706 52.9078 70.2734 54.5461 70.2734 56.5669C70.2734 58.588 68.6706 60.226 66.6942 60.226Z" fill="#283343"/>
<path d="M48.8397 33.912C46.1149 33.912 43.9065 36.1205 43.9065 38.845C43.9065 41.5696 46.1149 43.7783 48.8397 43.7783C51.5641 43.7783 53.7727 41.5696 53.7727 38.845C53.7727 36.1205 51.5641 33.912 48.8397 33.912ZM36.0229 33.9123C33.2985 33.9123 31.0898 36.1205 31.0898 38.8453C31.0898 41.5696 33.2985 43.7783 36.0229 43.7783C38.7475 43.7783 40.9563 41.5696 40.9563 38.8453C40.9563 36.1205 38.7475 33.9123 36.0229 33.9123ZM47.3642 27.7455C47.3642 30.47 45.1558 32.679 42.4314 32.679C39.7067 32.679 37.4982 30.47 37.4982 27.7455C37.4982 25.0212 39.7067 22.8125 42.4314 22.8125C45.1558 22.8125 47.3642 25.0212 47.3642 27.7455Z" fill="url(#paint0_radial_238_4397)"/>
</g>
<defs>
<radialGradient id="paint0_radial_238_4397" cx="0" cy="0" r="1" gradientUnits="userSpaceOnUse" gradientTransform="translate(42.4313 34.2708) scale(15.0304 13.8927)">
<stop stop-color="#FFB900"/>
<stop offset="0.6" stop-color="#F95D8F"/>
<stop offset="0.9991" stop-color="#F95353"/>
</radialGradient>
<clipPath id="clip0_238_4397">
<rect width="60" height="60" fill="white" transform="translate(12.3398 12.5)"/>
</clipPath>
</defs>
</svg>
