<svg width="85" height="85" viewBox="0 0 85 85" fill="none" xmlns="http://www.w3.org/2000/svg">
<rect x="0.339844" y="0.5" width="84" height="84" rx="12" fill="white"/>
<g clip-path="url(#clip0_238_4401)">
<circle cx="42.3398" cy="42.5" r="30" fill="#00A82D"/>
<path d="M35.2687 31.8809C35.2687 32.2646 35.2375 32.9042 34.8634 33.32C34.458 33.7037 33.8344 33.7357 33.4602 33.7357C31.3553 33.7357 28.4354 33.2068 26.4445 34.0235C29.483 28.5715 35.3692 24.9487 35.3311 25.2611C35.0506 27.4184 35.2687 29.711 35.2687 31.8809ZM41.5673 56.6333C41.5673 53.9789 43.6876 51.8043 46.3068 51.8043C47.0863 51.8043 47.7099 52.4439 47.7099 53.2434C47.7099 53.7871 47.4293 54.2348 46.9928 54.4906C46.5174 54.7832 45.8589 54.6467 45.4337 55.0343C45.1219 55.2901 44.8725 55.7058 44.8725 56.1536C44.8725 56.6333 45.0596 57.081 45.3714 57.4008C45.9326 57.9764 46.681 58.2962 47.4917 58.2962C49.612 58.2962 51.3269 56.5373 51.3269 54.3627C51.3269 52.4119 50.0485 50.685 48.3647 49.9175C45.8094 48.6071 41.8997 49.3528 41.5985 45.2484C41.1298 47.4193 40.0959 51.2926 37.2955 51.2926C28.8359 51.8081 25.7867 44.9556 25.1973 37.7012C25.1973 36.1342 26.1327 35.0789 27.3176 34.919C29.4379 34.919 31.5582 34.919 33.6785 34.919C34.7698 34.919 35.3935 34.6311 35.7988 34.2474C36.3289 33.7357 36.4536 33.0002 36.4536 32.1367C36.4536 29.8875 36.4536 26.4286 36.4536 25.389C36.4536 24.0312 37.6385 23.2144 39.1664 23.2144C40.0664 23.2144 40.9111 23.246 41.7856 23.4702C43.6876 23.9499 44.0929 25.9326 44.0929 25.9326C44.0929 25.9326 47.6788 26.5722 49.4873 26.892C51.2022 27.2118 55.4428 27.4996 56.2535 31.8809C58.1556 42.3063 57.0019 52.4119 56.9083 52.4119C55.5676 62.2617 47.5852 61.782 47.5852 61.782C44.6836 61.782 41.5673 59.8018 41.5673 56.6333ZM50.9216 39.652C49.8926 39.556 49.0195 39.9718 48.7077 40.7713C48.2659 41.9042 52.8236 42.8463 52.8236 41.2829C52.6989 40.3875 51.9506 39.7799 50.9216 39.652Z" fill="white"/>
</g>
<defs>
<clipPath id="clip0_238_4401">
<rect width="60" height="60" fill="white" transform="translate(12.3398 12.5)"/>
</clipPath>
</defs>
</svg>
