<svg width="85" height="85" viewBox="0 0 85 85" fill="none" xmlns="http://www.w3.org/2000/svg">
<rect x="0.339844" y="0.5" width="84" height="84" rx="12" fill="white"/>
<g clip-path="url(#clip0_238_4169)">
<path d="M51.9855 52.1288C49.5118 54.6026 46.2924 55.9242 43.0392 56.0937C42.8359 56.0937 42.5987 56.1275 42.3953 56.1275C42.192 56.1275 41.9548 56.1275 41.7515 56.0937C38.2611 55.992 34.8045 55.0431 31.6868 53.281C30.0264 52.3321 28.4675 51.18 27.0781 49.7567C24.9432 47.6217 23.3505 45.1818 22.3 42.5725C19.8262 36.4727 20.2667 29.5257 23.5538 23.731C16.9796 27.4247 12.5742 34.4733 12.5742 42.5386C12.5742 50.6039 16.9796 57.6525 23.5538 61.3801C26.7054 63.1762 30.3652 64.2267 34.2623 64.2267C37.1428 64.2267 39.8877 63.6506 42.3953 62.634C46.9363 60.804 50.7317 57.4831 53.1038 53.2471C54.7982 50.265 55.8149 46.8423 55.9165 43.1825C55.781 46.4696 54.4594 49.655 51.9855 52.1288Z" fill="#4FC3F7"/>
<path d="M57.713 19.0883C49.2411 10.6164 35.5166 10.6164 27.0447 19.0883C25.6214 20.5116 24.4693 22.0704 23.5204 23.697C20.2333 29.4918 19.8267 36.4388 22.3004 42.5386C23.351 45.1479 24.9437 47.6217 27.0786 49.7227C28.5019 51.146 30.0607 52.2982 31.6873 53.2471C34.805 55.0092 38.2615 55.9581 41.752 56.0597C38.4987 55.8903 35.3133 54.5687 32.8056 52.0949C30.1624 49.4855 28.8408 45.9951 28.8408 42.5386V42.5047C28.8408 38.8109 29.7896 35.1172 31.6873 31.7962C32.6362 30.1357 33.7884 28.5769 35.2116 27.1875C37.3466 25.0525 39.7865 23.4598 42.3958 22.4093C48.4956 19.9355 55.4765 20.376 61.2712 23.6631C60.3224 22.0365 59.1363 20.4777 57.713 19.0883Z" fill="#4285F4"/>
<path opacity="0.2" d="M42.3949 22.1042C39.7856 23.1547 37.3118 24.7475 35.2107 26.8824C33.7874 28.3057 32.6353 29.8645 31.6864 31.4911C29.7887 34.7782 28.8398 38.472 28.8398 42.1657V42.1996C28.8398 42.2335 28.8398 42.3013 28.8398 42.3351C28.8737 38.7092 29.8226 35.0493 31.6864 31.7961C32.6353 30.1356 33.7874 28.5768 35.2107 27.1874C37.3456 25.0524 39.7856 23.4597 42.3949 22.4092C48.4947 19.9354 55.4755 20.3759 61.2703 23.663C61.1687 23.4936 61.067 23.3242 60.9653 23.1547C55.2383 20.0371 48.393 19.6643 42.3949 22.1042Z" fill="#1A237E"/>
<path opacity="0.2" d="M27.0775 49.3839C24.9426 47.249 23.3499 44.8091 22.2994 42.1997C21.2489 39.5904 20.7067 36.8455 20.7067 34.1006C20.6728 36.981 21.1811 39.8276 22.2994 42.5386C23.3499 45.148 24.9426 47.6218 27.0775 49.7228C28.5008 51.1461 30.0597 52.2983 31.6863 53.2471C34.8039 55.0093 38.2605 55.9581 41.7509 56.0598C40.3276 55.992 38.9043 55.687 37.5488 55.1787C35.5156 54.7043 33.5501 53.9587 31.6863 52.9082C30.0258 51.9933 28.4669 50.8072 27.0775 49.3839Z" fill="#1A237E"/>
<path d="M65.8452 27.2213C64.4219 25.798 62.863 24.6458 61.2364 23.697C55.4417 20.4099 48.4608 19.9693 42.361 22.4431C39.7517 23.4937 37.2779 25.0864 35.1768 27.2213C33.7536 28.6446 32.6014 30.2034 31.6525 31.83C29.7887 35.1171 28.8398 38.8109 28.8398 42.5046C28.8398 39.0481 30.1615 35.5916 32.8047 32.9483C35.2785 30.4745 38.4978 29.1529 41.751 28.9835C42.1916 28.9496 42.6321 28.9496 43.0388 28.9835C46.5292 29.0851 49.9857 30.034 53.1034 31.7961C54.7639 32.745 56.3227 33.8972 57.7121 35.3205C59.847 37.4554 61.4398 39.8953 62.4903 42.5046C64.9641 48.6044 64.5235 55.5853 61.2364 61.3462C62.8969 60.3973 64.4558 59.2451 65.8452 57.8218C74.3171 49.4177 74.3171 35.6593 65.8452 27.2213Z" fill="#FFC107"/>
<path opacity="0.2" d="M28.8398 42.8774C28.8398 46.334 30.1615 49.8244 32.8047 52.4677C35.2785 54.9414 38.4978 56.2631 41.751 56.4325C41.9544 56.4325 42.1916 56.4664 42.3949 56.4664C42.5982 56.4664 42.8354 56.4664 43.0388 56.4325C46.292 56.2631 49.4774 54.9414 51.9851 52.4677C54.2556 50.1972 55.5433 47.3167 55.8822 44.3685C55.9161 43.9957 55.95 43.5891 55.95 43.2163C55.7805 46.4695 54.4589 49.655 51.9851 52.1288C49.5113 54.6026 46.292 55.9242 43.0388 56.0936C42.8354 56.0936 42.5982 56.1275 42.3949 56.1275C42.1916 56.1275 41.9544 56.1275 41.751 56.0936C38.4978 55.9242 35.3124 54.6026 32.8047 52.1288C30.1954 49.5194 28.9076 46.1307 28.8398 42.708C28.8398 42.7419 28.8398 42.8097 28.8398 42.8774C28.8398 42.8774 28.8398 42.8436 28.8398 42.8774Z" fill="white"/>
<path opacity="0.2" d="M62.5242 42.1997C61.4736 39.5903 59.8809 37.1165 57.746 35.0155C56.3227 33.5922 54.7639 32.44 53.1373 31.4912C50.0196 29.729 46.5631 28.7802 43.0727 28.6785C42.6321 28.6446 42.1916 28.6446 41.7849 28.6785C38.5317 28.8479 35.3463 30.1357 32.8386 32.6433C30.1615 35.2527 28.8398 38.7092 28.8398 42.1658V42.1997C28.8398 42.2674 28.8398 42.3013 28.8398 42.3691C28.8737 38.9464 30.1954 35.5577 32.8047 32.9483C35.2785 30.4745 38.4978 29.1529 41.751 28.9835C42.1916 28.9496 42.6321 28.9496 43.0388 28.9835C46.5292 29.0851 49.9857 30.034 53.1034 31.7962C54.7639 32.745 56.3227 33.8972 57.7121 35.3205C59.847 37.4554 61.4398 39.8953 62.4903 42.5047C63.5408 45.114 64.0491 47.8589 64.0491 50.6038C64.1169 47.7572 63.6086 44.9107 62.5242 42.1997Z" fill="#BF360C"/>
<path opacity="0.2" d="M65.8457 57.5169C64.5241 58.8385 63.0331 59.9568 61.4742 60.8717C61.3726 61.0412 61.3048 61.2106 61.2031 61.3801C62.8636 60.4312 64.4225 59.279 65.8118 57.8557C70.0817 53.5859 72.2166 47.9606 72.1488 42.3352C72.1827 47.8589 70.0478 53.3487 65.8457 57.5169Z" fill="#BF360C"/>
<g opacity="0.2">
<path opacity="0.2" d="M57.7124 35.6932C59.8473 37.8281 61.4401 40.268 62.4906 42.8774C63.5411 45.4867 64.0494 48.2316 64.0494 50.9765C64.0833 48.0961 63.575 45.2495 62.4906 42.5385C61.4401 39.9292 59.8473 37.4554 57.7124 35.3543C56.2891 33.931 54.7303 32.7789 53.1037 31.83C49.986 30.0679 46.5295 29.119 43.0391 29.0173C44.4623 29.0851 45.8856 29.3901 47.2411 29.8984C49.2744 30.3728 51.2399 31.1184 53.1037 32.1689C54.7642 33.0839 56.323 34.2699 57.7124 35.6932Z" fill="#1A237E"/>
</g>
<g opacity="0.2">
<path opacity="0.2" d="M65.8456 27.2213C64.4223 25.7981 62.8635 24.6459 61.2369 23.697C60.288 22.0365 59.1358 20.4777 57.7126 19.0883C49.2407 10.6164 35.5162 10.6164 27.0442 19.0883C25.621 20.5116 24.4688 22.0704 23.5199 23.697C16.9796 27.4247 12.5742 34.4733 12.5742 42.5386C12.5742 42.6063 12.5742 42.6402 12.5742 42.708C12.642 34.8122 16.9118 27.933 23.2488 24.2053C21.5544 27.3908 20.7073 30.9151 20.7073 34.4394C20.775 30.8473 21.69 27.2552 23.5199 24.0359C24.4688 22.3754 25.621 20.8166 27.0442 19.4272C35.5162 10.9553 49.2407 10.9553 57.7126 19.4272C58.9664 20.681 60.0508 22.0704 60.9319 23.5615C55.2049 20.4099 48.3596 20.0372 42.3615 22.4771C39.7521 23.5276 37.2783 25.1203 35.1773 27.2552C33.754 28.6785 32.6018 30.2373 31.653 31.864C29.7891 35.1172 28.8403 38.8109 28.8403 42.5047C28.8403 42.0641 28.8742 41.5897 28.9081 41.1492C29.1453 38.0315 30.0941 34.9477 31.6869 32.1351C32.6357 30.4746 33.7879 28.9157 35.2112 27.5263C37.3461 25.3914 39.786 23.7987 42.3953 22.7482C48.4951 20.2744 55.476 20.7149 61.2708 24.002C62.9313 24.9509 64.4901 26.1031 65.8795 27.5263C70.0816 31.7284 72.1826 37.1843 72.2173 42.708C72.2504 37.0827 70.1493 31.4912 65.8456 27.2213Z" fill="white"/>
</g>
<g filter="url(#filter0_d_238_4169)">
<path d="M62.5248 42.5385C61.4743 39.9292 59.8816 37.4554 57.7466 35.3543C56.3234 33.931 54.7645 32.7789 53.1379 31.83C50.0203 30.0679 46.5637 29.119 43.0733 29.0173C46.3265 29.1868 49.5119 30.4745 52.0196 32.9822C54.4595 35.4221 55.7812 38.6414 55.9506 41.8608C55.9506 42.098 55.9845 42.3013 55.9845 42.5385C55.9845 42.7757 55.9845 42.979 55.9506 43.2163C55.8489 46.8761 54.8323 50.2988 53.1379 53.2809C50.7319 57.483 46.9704 60.8378 42.4294 62.6678C39.9217 63.6844 37.1768 64.2605 34.2964 64.2605C30.3993 64.2605 26.7394 63.21 23.5879 61.4139C24.5367 63.0744 25.6889 64.6333 27.1122 66.0226C35.5841 74.4946 49.3086 74.4946 57.7805 66.0226C59.2038 64.5994 60.356 63.0405 61.3048 61.4139C64.5581 55.6191 64.9647 48.6383 62.5248 42.5385Z" fill="black"/>
</g>
<path d="M62.5248 42.5385C61.4743 39.9292 59.8816 37.4554 57.7466 35.3543C56.3234 33.931 54.7645 32.7789 53.1379 31.83C50.0203 30.0679 46.5637 29.119 43.0733 29.0173C46.3265 29.1868 49.5119 30.4745 52.0196 32.9822C54.4595 35.4221 55.7812 38.6414 55.9506 41.8608C55.9506 42.098 55.9845 42.3013 55.9845 42.5385C55.9845 42.7757 55.9845 42.979 55.9506 43.2163C55.8489 46.8761 54.8323 50.2988 53.1379 53.2809C50.7319 57.483 46.9704 60.8378 42.4294 62.6678C39.9217 63.6844 37.1768 64.2605 34.2964 64.2605C30.3993 64.2605 26.7394 63.21 23.5879 61.4139C24.5367 63.0744 25.6889 64.6333 27.1122 66.0226C35.5841 74.4946 49.3086 74.4946 57.7805 66.0226C59.2038 64.5994 60.356 63.0405 61.3048 61.4139C64.5581 55.6191 64.9647 48.6383 62.5248 42.5385Z" fill="#3367D6"/>
<g opacity="0.2">
<path opacity="0.2" d="M42.3955 62.9728C46.9365 61.1428 50.698 57.8219 53.104 53.5859C54.7984 50.6038 55.815 47.1811 55.9167 43.5213C55.9167 43.2841 55.9506 43.0807 55.9506 42.8435C55.9506 42.7757 55.9506 42.7418 55.9506 42.6741C55.9506 42.8435 55.9506 43.0129 55.9506 43.1824C55.8489 46.8423 54.8323 50.2649 53.1379 53.247C50.7319 57.4491 46.9704 60.804 42.4294 62.6339C39.9217 63.6505 37.1768 64.2266 34.2964 64.2266C30.3993 64.2266 26.7394 63.1761 23.5879 61.3801C23.6896 61.5495 23.7912 61.7189 23.8929 61.8884C26.9767 63.5828 30.5349 64.5655 34.3303 64.5655C37.143 64.5655 39.8878 63.9894 42.3955 62.9728Z" fill="#1A237E"/>
</g>
<g opacity="0.2">
<path opacity="0.2" d="M23.8249 61.5495C26.9087 63.2439 30.4669 64.2267 34.2623 64.2267C37.1428 64.2267 39.8877 63.6506 42.3953 62.634C46.9363 60.804 50.7317 57.483 53.1038 53.2471C54.7982 50.265 55.8149 46.8423 55.9165 43.1824C55.9165 43.4535 55.8826 43.7246 55.8487 43.9957C55.5776 47.2151 54.6288 50.2311 53.1038 52.9082C50.6978 57.1442 46.9363 60.4651 42.3953 62.2951C39.8877 63.3117 37.1428 63.8878 34.2623 63.8878C30.3652 63.8878 26.7054 62.8373 23.5538 61.0412C17.0474 57.3475 12.642 50.3666 12.5742 42.3691C12.5742 42.4369 12.5742 42.4708 12.5742 42.5386C12.5742 50.6038 16.9796 57.6525 23.5538 61.3801" fill="#1A237E"/>
</g>
<path d="M57.916 35.5576C59.9493 37.6248 61.4742 40.0308 62.4908 42.5385C64.9646 48.6383 64.5241 55.6191 61.237 61.38C62.8975 60.4312 64.4563 59.279 65.8457 57.8557C68.4551 55.2463 70.2511 52.1626 71.2339 48.8755L57.916 35.5576Z" fill="url(#paint0_linear_238_4169)"/>
<path opacity="0.2" d="M61.2365 61.0412C60.2876 62.7017 59.1354 64.2605 57.7122 65.6499C49.2403 74.1218 35.5158 74.1218 27.0438 65.6499C25.79 64.3961 24.7056 63.0067 23.8245 61.5495C23.7229 61.4817 23.6212 61.4479 23.5195 61.3801C24.4684 63.0406 25.6206 64.5994 27.0438 65.9888C35.5158 74.4607 49.2403 74.4607 57.7122 65.9888C59.1354 64.5655 60.2876 63.0067 61.2365 61.3801C63.1342 58.0591 64.083 54.3314 64.0492 50.6377C64.0153 54.2298 63.1003 57.8219 61.2365 61.0412Z" fill="#1A237E"/>
<path d="M65.8456 27.2213C64.4223 25.7981 62.8635 24.6459 61.2369 23.697C60.288 22.0365 59.1358 20.4777 57.7126 19.0883C49.2407 10.6164 35.5162 10.6164 27.0442 19.0883C25.621 20.5116 24.4688 22.0704 23.5199 23.697C16.9796 27.4247 12.5742 34.4733 12.5742 42.5386C12.5742 50.6038 16.9796 57.6525 23.5538 61.3801C24.5027 63.0406 25.6549 64.5994 27.0781 65.9888C35.55 74.4607 49.2745 74.4607 57.7465 65.9888C59.1697 64.5655 60.3219 63.0067 61.2708 61.3801C62.9313 60.4312 64.4901 59.2791 65.8795 57.8558C74.3175 49.4178 74.3175 35.6594 65.8456 27.2213ZM55.9504 42.5386C55.9504 50.0277 49.8845 56.0936 42.3953 56.0936C34.9062 56.0936 28.8403 50.0277 28.8403 42.5386C28.8403 35.0494 34.9062 28.9835 42.3953 28.9835C49.8845 28.9835 55.9504 35.0494 55.9504 42.5386Z" fill="url(#paint1_radial_238_4169)" fill-opacity="0.1"/>
</g>
<defs>
<filter id="filter0_d_238_4169" x="22.5879" y="27.0173" width="52.5059" height="55.3591" filterUnits="userSpaceOnUse" color-interpolation-filters="sRGB">
<feFlood flood-opacity="0" result="BackgroundImageFix"/>
<feColorMatrix in="SourceAlpha" type="matrix" values="0 0 0 0 0 0 0 0 0 0 0 0 0 0 0 0 0 0 127 0" result="hardAlpha"/>
<feOffset dx="5" dy="4"/>
<feGaussianBlur stdDeviation="3"/>
<feColorMatrix type="matrix" values="0 0 0 0 0.768627 0 0 0 0 0.489469 0 0 0 0 0.0235294 0 0 0 0.2 0"/>
<feBlend mode="normal" in2="BackgroundImageFix" result="effect1_dropShadow_238_4169"/>
<feBlend mode="normal" in="SourceGraphic" in2="effect1_dropShadow_238_4169" result="shape"/>
</filter>
<linearGradient id="paint0_linear_238_4169" x1="58.1109" y1="46.9862" x2="70.1576" y2="50.1906" gradientUnits="userSpaceOnUse">
<stop stop-color="#BF360C" stop-opacity="0.2"/>
<stop offset="1" stop-color="#BF360C" stop-opacity="0"/>
</linearGradient>
<radialGradient id="paint1_radial_238_4169" cx="0" cy="0" r="1" gradientUnits="userSpaceOnUse" gradientTransform="translate(20.2527 20.7375) scale(59.1958 59.1957)">
<stop stop-color="white"/>
<stop offset="1" stop-color="white" stop-opacity="0"/>
</radialGradient>
<clipPath id="clip0_238_4169">
<rect width="60" height="60" fill="white" transform="translate(12.3398 12.5)"/>
</clipPath>
</defs>
</svg>
