<svg width="85" height="85" viewBox="0 0 85 85" fill="none" xmlns="http://www.w3.org/2000/svg">
<rect x="0.339844" y="0.5" width="84" height="84" rx="12" fill="white"/>
<g clip-path="url(#clip0_238_4387)">
<path d="M48.6722 48.8459C44.6016 50.3776 40.0401 50.3805 35.9693 48.8468C34.4356 44.7805 34.4352 40.2199 35.967 36.1531C40.0367 34.6186 44.6027 34.6184 48.6725 36.1528C50.2056 40.2185 50.2049 44.7802 48.6722 48.8459ZM71.9228 37.4991H54.3998L66.7897 25.1163C64.8452 22.3867 62.4447 19.9888 59.7133 18.0455L47.3225 30.4282V12.9166C44.0156 12.3607 40.6241 12.3615 37.3171 12.9166V30.4282L24.9264 18.0455C22.1957 19.9875 19.7944 22.3886 17.8497 25.1163L30.2415 37.4991H12.7188C12.2862 40.903 12.1457 44.102 12.7188 47.4989H30.2417L17.85 59.8816C19.7993 62.6154 22.1908 65.0054 24.9264 66.9534L37.3171 54.5698V72.0823C40.6245 72.6361 44.015 72.6365 47.3223 72.0823V54.5698L59.7142 66.9534C62.4468 65.0082 64.8431 62.6123 66.7897 59.8816L54.398 47.4989H71.9228C72.4789 44.1969 72.4789 40.801 71.9228 37.4991Z" fill="#FF4A00"/>
</g>
<defs>
<clipPath id="clip0_238_4387">
<rect width="60" height="60" fill="white" transform="translate(12.3398 12.5)"/>
</clipPath>
</defs>
</svg>
