<svg width="85" height="85" viewBox="0 0 85 85" fill="none" xmlns="http://www.w3.org/2000/svg">
<rect x="0.339844" y="0.5" width="84" height="84" rx="12" fill="white"/>
<g clip-path="url(#clip0_238_4177)">
<path d="M25.3658 17.3091C28.7377 16.8718 32.2412 17.6224 35.1272 19.4215C36.7562 20.3818 38.0592 21.7717 39.3954 23.0874C40.3646 24.0362 41.3236 24.9965 42.2954 25.9427L42.3312 26.0412C41.6053 26.7559 40.7816 28.1849 39.8602 30.3283C37.9276 31.0082 36.6087 31.6945 35.9033 32.3872C34.3293 30.872 32.8064 29.3031 31.2387 27.7802C29.7478 26.3839 27.4948 25.8212 25.5423 26.4619C23.3187 27.0871 21.6219 29.2136 21.5042 31.5216C21.4275 32.7222 21.7408 33.9421 22.3903 34.9548C22.7944 35.6069 23.3851 36.1043 23.9145 36.649C25.1868 37.9277 26.4898 39.177 27.7429 40.4736C27.0737 41.1312 26.2813 42.4042 25.3658 44.2926C23.4184 45.2156 22.0672 46.0549 21.3124 46.8107C19.6207 45.22 18.0032 43.5436 16.3269 41.9351C14.3309 39.8585 12.9959 37.1643 12.5356 34.3219C12.0293 31.2722 12.51 28.0615 13.9217 25.3085C15.107 23.0005 16.901 20.9955 19.0837 19.5877C20.9812 18.3947 23.1307 17.5585 25.3658 17.3091Z" fill="#EA4335"/>
<path d="M42.3602 54.8701L56.9869 40.4543L60.9416 42.8033L63.4161 46.8247L42.3602 67.6555L27.7539 53.2053L30.5568 49.2609L34.2227 46.8196L42.3602 54.8701Z" fill="#34A853"/>
<path d="M35.9162 32.4014L39.5953 34.3914L42.3594 38.7896L27.7532 53.2054L21.3125 46.8107L35.9162 32.4014Z" fill="#FBBC05"/>
<path d="M59.9951 17.3974C64.2812 18.1237 68.2233 20.8 70.3843 24.5861C72.8457 28.7456 72.98 34.1429 70.796 38.4469C69.8907 40.2959 68.5085 41.8559 67.0367 43.2739C65.8156 44.4413 64.6558 45.6868 63.4143 46.8248C61.2661 44.7073 59.1154 42.5911 56.9851 40.4544C58.5029 38.9213 60.045 37.4138 61.5679 35.8858C62.5499 34.8935 63.1649 33.533 63.2148 32.1328C63.2826 30.5435 62.6547 28.9311 61.5026 27.8288C60.3288 26.7177 58.6844 26.086 57.0656 26.2203C55.6732 26.2868 54.3293 26.9184 53.3473 27.903C49.6826 31.5293 46.0269 35.1659 42.3584 38.7896C40.2012 36.6696 38.0416 34.5521 35.9151 32.4014C35.9126 32.3975 35.9062 32.3911 35.9023 32.3873C38.0505 30.2775 40.1846 28.1536 42.3302 26.0413C43.8851 24.5094 45.4348 22.9712 46.991 21.438C49.0062 19.4139 51.6633 18.0879 54.4393 17.4793C56.269 17.1353 58.1564 17.0969 59.9951 17.3974Z" fill="#4285F4"/>
</g>
<defs>
<clipPath id="clip0_238_4177">
<rect width="60" height="60" fill="white" transform="translate(12.3398 12.5)"/>
</clipPath>
</defs>
</svg>
