<svg width="85" height="85" viewBox="0 0 85 85" fill="none" xmlns="http://www.w3.org/2000/svg">
<rect x="0.339844" y="0.5" width="84" height="84" rx="12" fill="white"/>
<g clip-path="url(#clip0_238_4163)">
<path d="M51.5948 42.3696C51.49 37.8248 47.7474 34.2107 43.2017 34.2645H21.5605V50.4748H35.5765V64.1068C35.457 66.2631 36.2193 68.3753 37.6884 69.9582C39.1575 71.541 41.2071 72.4586 43.3663 72.4999C45.5705 72.4782 47.6758 71.5817 49.2189 70.0077C50.7621 68.4336 51.6168 66.311 51.5948 64.1068V42.3696Z" fill="#B366F6"/>
<path d="M21.4648 50.6532C25.9866 50.6532 29.6522 46.9875 29.6522 42.4657C29.6522 37.944 25.9866 34.2783 21.4648 34.2783C16.943 34.2783 13.2773 37.944 13.2773 42.4657C13.2773 46.9875 16.943 50.6532 21.4648 50.6532Z" fill="#8430CE"/>
<path d="M71.5768 20.6463C71.5317 16.1339 67.8608 12.5 63.3482 12.5H41.2134C37.0082 12.9221 33.8066 16.4612 33.8066 20.6874C33.8066 24.9137 37.0082 28.4528 41.2134 28.8749H55.394V42.4931C55.2716 45.4659 56.7878 48.2667 59.3438 49.7895C61.8998 51.3123 65.0847 51.3123 67.6407 49.7895C70.1967 48.2667 71.7129 45.4659 71.5905 42.4931L71.5768 20.6463Z" fill="#C58AF8"/>
</g>
<defs>
<clipPath id="clip0_238_4163">
<rect width="60" height="60" fill="white" transform="translate(12.3398 12.5)"/>
</clipPath>
</defs>
</svg>
