<svg width="85" height="84" viewBox="0 0 85 84" fill="none" xmlns="http://www.w3.org/2000/svg">
<rect x="0.277344" width="84" height="84" rx="12" fill="white"/>
<g clip-path="url(#clip0_238_3519)">
<circle cx="44.1523" cy="42" r="26.25" fill="url(#paint0_linear_238_3519)"/>
<mask id="mask0_238_3519" style="mask-type:alpha" maskUnits="userSpaceOnUse" x="17" y="15" width="54" height="54">
<circle cx="44.1523" cy="42" r="26.25" fill="#C4C4C4"/>
</mask>
<g mask="url(#mask0_238_3519)">
<rect x="46.0273" y="12" width="31.875" height="31.875" fill="url(#paint1_linear_238_3519)"/>
<path d="M23.5273 31.875C23.5273 30.2181 24.8705 28.875 26.5273 28.875H46.7773C48.4342 28.875 49.7773 30.2181 49.7773 31.875V59.625C49.7773 61.2819 48.4342 62.625 46.7773 62.625H23.5273V31.875Z" fill="black" fill-opacity="0.3"/>
<rect x="14.1523" y="12" width="31.875" height="31.875" fill="#EB6C4D"/>
</g>
<rect x="12.2773" y="25.125" width="33.75" height="33.75" rx="2" fill="url(#paint2_linear_238_3519)"/>
<path d="M36.6523 39.1071C36.6523 35.0625 33.9897 32.625 29.7671 32.625H23.5273V51.375H27.4003V45.6696H29.6057C33.5594 45.6696 36.6523 43.4196 36.6523 39.1071ZM32.7256 39.1875C32.7256 41.0089 31.5691 42.1875 29.6864 42.1875H27.4003V36.1339H29.6595C31.5422 36.1339 32.7256 37.125 32.7256 39.1875Z" fill="white"/>
</g>
<defs>
<linearGradient id="paint0_linear_238_3519" x1="17.9023" y1="45.6207" x2="70.4023" y2="45.6207" gradientUnits="userSpaceOnUse">
<stop stop-color="#A73A24"/>
<stop offset="1" stop-color="#F75936"/>
</linearGradient>
<linearGradient id="paint1_linear_238_3519" x1="71.3398" y1="30.75" x2="46.0273" y2="30.75" gradientUnits="userSpaceOnUse">
<stop stop-color="#FDB8A3"/>
<stop offset="1" stop-color="#F1876D"/>
</linearGradient>
<linearGradient id="paint2_linear_238_3519" x1="12.2773" y1="44.3276" x2="46.0273" y2="44.3276" gradientUnits="userSpaceOnUse">
<stop stop-color="#A73A24"/>
<stop offset="1" stop-color="#F75936"/>
</linearGradient>
<clipPath id="clip0_238_3519">
<rect width="60" height="60" fill="white" transform="translate(12.2773 12)"/>
</clipPath>
</defs>
</svg>
