<svg width="85" height="84" viewBox="0 0 85 84" fill="none" xmlns="http://www.w3.org/2000/svg">
<rect x="0.277344" width="84" height="84" rx="12" fill="white"/>
<path d="M60.0044 72H24.5499C22.2863 72 20.459 70.1727 20.459 67.9091V16.0909C20.459 13.8273 22.2863 12 24.5499 12H49.0954L64.0954 27V67.9091C64.0954 70.1727 62.2681 72 60.0044 72Z" fill="#FFBA00"/>
<path d="M49.0957 12L64.0957 27H49.0957V12Z" fill="#FF9500"/>
<path d="M47.0504 52.2273V55.6364H37.505V52.2273H47.0504ZM42.2641 32.4548L42.397 32.4558C47.2248 32.534 51.1141 36.4717 51.1141 41.3182C51.1141 44.4819 49.4572 47.25 46.9686 48.8182H37.5595C35.0641 47.25 33.4141 44.4819 33.4141 41.3182C33.4141 36.4228 37.3822 32.4546 42.2777 32.4546L42.2641 32.4548Z" fill="white"/>
</svg>
