<svg width="85" height="84" viewBox="0 0 85 84" fill="none" xmlns="http://www.w3.org/2000/svg">
<rect x="0.277344" width="84" height="84" rx="12" fill="white"/>
<g clip-path="url(#clip0_238_3515)">
<path d="M64.7773 43.875C64.7773 54.9746 59.5936 64.9765 51.3009 72C21.6523 43.875 21.6523 43.875 21.6523 43.875C48.6052 43.8749 55.3434 43.8752 64.7773 43.875Z" fill="url(#paint0_linear_238_3515)"/>
<path d="M64.7773 43.875C53.3219 43.875 43.8884 43.875 21.6523 43.875C21.6523 43.875 21.6523 43.875 51.3009 13.875C59.5936 21.3667 64.7773 32.0355 64.7773 43.875Z" fill="url(#paint1_linear_238_3515)"/>
<path d="M70.0899 57C71.5087 52.5817 72.2773 47.8531 72.2773 42.9375C72.2773 38.0219 71.5087 33.2933 70.0899 28.875L21.6523 43.875L70.0899 57Z" fill="url(#paint2_linear_238_3515)"/>
<path d="M25.4023 31.875C25.4023 30.2181 26.7455 28.875 28.4023 28.875H46.7773C48.4342 28.875 49.7773 30.2181 49.7773 31.875V59.625C49.7773 61.2819 48.4342 62.625 46.7773 62.625H42.5825C41.7868 62.625 41.0238 62.3089 40.4612 61.7463L37.5898 58.875H28.4023C26.7455 58.875 25.4023 57.5319 25.4023 55.875V31.875Z" fill="black" fill-opacity="0.3"/>
<rect x="12.2773" y="25.125" width="33.75" height="33.75" rx="2" fill="url(#paint3_linear_238_3515)"/>
<path d="M28.7334 40.1092L24.3132 32.625H19.7773L26.9711 44.7048V51.375H31.3047V44.7048L38.5273 32.625H33.9626L29.5424 40.1092H28.7334Z" fill="white"/>
</g>
<defs>
<linearGradient id="paint0_linear_238_3515" x1="39.8455" y1="53.0108" x2="58.445" y2="64.3308" gradientUnits="userSpaceOnUse">
<stop stop-color="#0E51A3"/>
<stop offset="1" stop-color="#1464B6"/>
</linearGradient>
<linearGradient id="paint1_linear_238_3515" x1="36.4764" y1="36.6794" x2="59.0135" y2="23.6547" gradientUnits="userSpaceOnUse">
<stop stop-color="#2292E2"/>
<stop offset="1" stop-color="#2294DB"/>
</linearGradient>
<linearGradient id="paint2_linear_238_3515" x1="35.8274" y1="43.6098" x2="71.6024" y2="43.6098" gradientUnits="userSpaceOnUse">
<stop stop-color="#176FE0"/>
<stop offset="1" stop-color="#2F9FEF"/>
</linearGradient>
<linearGradient id="paint3_linear_238_3515" x1="12.2773" y1="42" x2="46.0273" y2="42" gradientUnits="userSpaceOnUse">
<stop stop-color="#084C8A"/>
<stop offset="1" stop-color="#1572CB"/>
</linearGradient>
<clipPath id="clip0_238_3515">
<rect width="60" height="60" fill="white" transform="translate(12.2773 12)"/>
</clipPath>
</defs>
</svg>
