<svg width="85" height="84" viewBox="0 0 85 84" fill="none" xmlns="http://www.w3.org/2000/svg">
<rect x="0.277344" width="84" height="84" rx="12" fill="white"/>
<g clip-path="url(#clip0_238_3527)">
<rect x="27.2773" y="15.75" width="45" height="52.5" rx="2" fill="#2FB776"/>
<path d="M27.2773 55.125H72.2773V66.25C72.2773 67.3546 71.3819 68.25 70.2773 68.25H29.2773C28.1728 68.25 27.2773 67.3546 27.2773 66.25V55.125Z" fill="url(#paint0_linear_238_3527)"/>
<rect x="49.7773" y="42" width="22.5" height="13.125" fill="#229C5B"/>
<rect x="49.7773" y="28.875" width="22.5" height="13.125" fill="#27AE68"/>
<path d="M27.2773 17.75C27.2773 16.6454 28.1728 15.75 29.2773 15.75H49.7773V28.875H27.2773V17.75Z" fill="#1D854F"/>
<rect x="27.2773" y="28.875" width="22.5" height="13.125" fill="#197B43"/>
<rect x="27.2773" y="42" width="22.5" height="13.125" fill="#1B5B38"/>
<path d="M27.2773 31.875C27.2773 30.2181 28.6205 28.875 30.2773 28.875H46.7773C48.4342 28.875 49.7773 30.2181 49.7773 31.875V59.625C49.7773 61.2819 48.4342 62.625 46.7773 62.625H27.2773V31.875Z" fill="black" fill-opacity="0.3"/>
<rect x="12.2773" y="25.125" width="33.75" height="33.75" rx="2" fill="url(#paint1_linear_238_3527)"/>
<path d="M36.6523 51.375L31.3688 41.8125L36.4204 32.625H32.2967L29.1781 38.4911L26.1111 32.625H21.8585L26.9358 41.8125L21.6523 51.375H25.7761L29.1008 45.1607L32.3998 51.375H36.6523Z" fill="white"/>
</g>
<defs>
<linearGradient id="paint0_linear_238_3527" x1="27.2773" y1="61.6875" x2="72.2773" y2="61.6875" gradientUnits="userSpaceOnUse">
<stop stop-color="#163C27"/>
<stop offset="1" stop-color="#2A6043"/>
</linearGradient>
<linearGradient id="paint1_linear_238_3527" x1="12.2773" y1="42" x2="46.0273" y2="42" gradientUnits="userSpaceOnUse">
<stop stop-color="#185A30"/>
<stop offset="1" stop-color="#176F3D"/>
</linearGradient>
<clipPath id="clip0_238_3527">
<rect width="60" height="60" fill="white" transform="translate(12.2773 12)"/>
</clipPath>
</defs>
</svg>
