<svg width="85" height="84" viewBox="0 0 85 84" fill="none" xmlns="http://www.w3.org/2000/svg">
<rect x="0.277344" width="84" height="84" rx="12" fill="white"/>
<g clip-path="url(#clip0_238_3517)">
<circle cx="41.3398" cy="33.5625" r="17.8125" fill="url(#paint0_linear_238_3517)"/>
<circle cx="57.2773" cy="43.875" r="15" fill="url(#paint1_linear_238_3517)"/>
<mask id="mask0_238_3517" style="mask-type:alpha" maskUnits="userSpaceOnUse" x="31" y="23" width="25" height="46">
<path d="M55.4023 56.0625C55.4023 62.7935 49.9458 68.25 43.2148 68.25C36.4839 68.25 31.0273 62.7935 31.0273 56.0625C31.0273 49.3316 31.0273 23.25 31.0273 23.25H55.4023C55.4023 23.25 55.4023 51.7478 55.4023 56.0625Z" fill="#C4C4C4"/>
</mask>
<g mask="url(#mask0_238_3517)">
<circle cx="43.2148" cy="56.0625" r="12.1875" fill="url(#paint2_linear_238_3517)"/>
<path d="M25.4023 31.875C25.4023 30.2181 26.7455 28.875 28.4023 28.875H46.7773C48.4342 28.875 49.7773 30.2181 49.7773 31.875V59.625C49.7773 61.2819 48.4342 62.625 46.7773 62.625H25.4023V31.875Z" fill="black" fill-opacity="0.3"/>
</g>
<rect x="12.2773" y="25.125" width="33.75" height="33.75" rx="2" fill="url(#paint3_linear_238_3517)"/>
<path d="M36.6523 45.9804C36.6523 43.0737 34.7027 41.7905 30.6461 40.2978C27.47 39.1194 26.7152 38.779 26.7152 37.6529C26.7152 36.684 27.6586 36.0293 29.2624 36.0293C30.8976 36.0293 32.4385 36.5793 34.1681 37.522L35.9291 34.4057C34.0737 33.2535 31.8725 32.625 29.1995 32.625C25.1115 32.625 22.1869 34.72 22.1869 37.9148C22.1869 41.1882 24.514 42.2357 28.4133 43.6236C31.5266 44.7235 32.124 45.2734 32.124 46.2423C32.124 47.3946 31.0234 47.9707 29.2939 47.9707C27.2498 47.9707 25.4574 47.2636 23.6649 46.1114L21.6523 49.0967C23.8536 50.6156 26.5895 51.375 29.3882 51.375C33.602 51.375 36.6523 49.3848 36.6523 45.9804Z" fill="white"/>
</g>
<defs>
<linearGradient id="paint0_linear_238_3517" x1="23.5273" y1="33.5625" x2="62.1211" y2="33.5625" gradientUnits="userSpaceOnUse">
<stop stop-color="#103A3B"/>
<stop offset="1" stop-color="#116B6E"/>
</linearGradient>
<linearGradient id="paint1_linear_238_3517" x1="46.0273" y1="36.375" x2="72.2773" y2="51.375" gradientUnits="userSpaceOnUse">
<stop stop-color="#1D9097"/>
<stop offset="1" stop-color="#29BBC2"/>
</linearGradient>
<linearGradient id="paint2_linear_238_3517" x1="34.7773" y1="52.3125" x2="55.4023" y2="61.6875" gradientUnits="userSpaceOnUse">
<stop stop-color="#28A6B5"/>
<stop offset="1" stop-color="#31D6EC"/>
</linearGradient>
<linearGradient id="paint3_linear_238_3517" x1="12.2773" y1="42" x2="48.8398" y2="42" gradientUnits="userSpaceOnUse">
<stop stop-color="#105557"/>
<stop offset="1" stop-color="#116B6E"/>
</linearGradient>
<clipPath id="clip0_238_3517">
<rect width="60" height="60" fill="white" transform="translate(12.2773 12)"/>
</clipPath>
</defs>
</svg>
