<svg width="85" height="84" viewBox="0 0 85 84" fill="none" xmlns="http://www.w3.org/2000/svg">
<rect x="0.277344" width="84" height="84" rx="12" fill="white"/>
<path d="M65.8315 35.7892C65.8315 22.6508 55.2919 12 42.2906 12C30.703 11.9835 20.828 20.4939 19.0147 32.0595C17.2014 43.6251 23.9896 54.8034 35.0148 58.4073V70.327C35.0148 71.2509 35.756 71.9999 36.6703 71.9999H47.8447C48.759 71.9999 49.5002 71.2509 49.5002 70.327V58.4157C59.2243 55.2515 65.8205 46.1126 65.8315 35.7892ZM42.2906 43.8277C37.8951 43.8277 34.3319 40.2269 34.3319 35.785C34.3319 31.3432 37.8951 27.7424 42.2906 27.7424C46.6861 27.7424 50.2493 31.3432 50.2493 35.785C50.2493 40.2269 46.6861 43.8277 42.2906 43.8277Z" fill="#2684FF"/>
<path fill-rule="evenodd" clip-rule="evenodd" d="M42.291 12V27.7508C46.6865 27.7508 50.2497 31.3516 50.2497 35.7934C50.2497 40.2352 46.6865 43.8361 42.291 43.8361C44.2207 43.8361 46.0713 44.6107 47.4358 45.9896C48.8003 47.3684 49.5669 49.2386 49.5669 51.1886V58.4241C60.5961 54.8195 67.3873 43.6377 65.574 32.0679C63.7607 20.4981 53.8827 11.9842 42.291 12Z" fill="url(#paint0_linear_238_3755)"/>
<defs>
<linearGradient id="paint0_linear_238_3755" x1="54.0615" y1="54.1163" x2="54.0615" y2="28.8465" gradientUnits="userSpaceOnUse">
<stop offset="0.18" stop-color="#0052CC"/>
<stop offset="1" stop-color="#2684FF"/>
</linearGradient>
</defs>
</svg>
