<svg width="85" height="84" viewBox="0 0 85 84" fill="none" xmlns="http://www.w3.org/2000/svg">
<rect x="0.277344" width="84" height="84" rx="12" fill="white"/>
<path d="M42.3175 12C26.2428 12 13.2148 17.492 13.2148 24.2543C13.221 24.6004 13.2561 24.9455 13.3199 25.2858L18.4489 52.2012C20.6127 63.6836 30.6426 72 42.3271 72C54.0115 72 64.0415 63.6836 66.2052 52.2012L71.3151 25.2858C71.3784 24.9486 71.4135 24.6068 71.4202 24.2638C71.4202 17.492 58.3923 12 42.3175 12ZM42.3175 56.5757C33.9124 56.5757 34.6096 37.0434 25.1921 34.1589C24.4089 33.9201 23.6639 33.6622 22.938 33.3853C29.1669 31.2255 35.7256 30.1717 42.3175 30.2715C48.9095 30.1717 55.4681 31.2255 61.697 33.3853C60.9711 33.6527 60.2261 33.9201 59.4429 34.1589C50.0254 37.0243 50.7322 56.5757 42.3175 56.5757Z" fill="#2684FF"/>
<path d="M22.938 33.3948C29.1669 31.2349 35.7255 30.1811 42.3175 30.2811C48.9095 30.1811 55.4681 31.2349 61.697 33.3948C67.657 31.1503 71.4202 27.8933 71.4202 24.2543C71.4202 17.492 58.3923 12 42.3175 12C26.2428 12 13.2148 17.492 13.2148 24.2543C13.2148 27.8837 16.9685 31.1503 22.938 33.3948Z" fill="url(#paint0_linear_238_3757)"/>
<defs>
<linearGradient id="paint0_linear_238_3757" x1="42.3175" y1="33.2515" x2="42.3175" y2="12.382" gradientUnits="userSpaceOnUse">
<stop offset="0.18" stop-color="#0052CC"/>
<stop offset="1" stop-color="#2684FF"/>
</linearGradient>
</defs>
</svg>
