<svg width="85" height="84" viewBox="0 0 85 84" fill="none" xmlns="http://www.w3.org/2000/svg">
<rect x="0.277344" width="84" height="84" rx="12" fill="white"/>
<g clip-path="url(#clip0_238_3521)">
<rect x="31.0273" y="15.75" width="37.5" height="52.5" rx="2" fill="#1066B5"/>
<rect x="31.0273" y="15.75" width="37.5" height="52.5" rx="2" fill="url(#paint0_linear_238_3521)"/>
<rect x="31.0273" y="21.375" width="18.75" height="18.75" fill="#32A9E7"/>
<rect x="31.0273" y="40.125" width="18.75" height="18.75" fill="#167EB4"/>
<rect x="49.7773" y="40.125" width="18.75" height="18.75" fill="#32A9E7"/>
<rect x="49.7773" y="21.375" width="18.75" height="18.75" fill="#58D9FD"/>
<mask id="mask0_238_3521" style="mask-type:alpha" maskUnits="userSpaceOnUse" x="27" y="38" width="46" height="31">
<path d="M27.2773 38.25H70.2773C71.3819 38.25 72.2773 39.1454 72.2773 40.25V66.25C72.2773 67.3546 71.3819 68.25 70.2773 68.25H29.2773C28.1728 68.25 27.2773 67.3546 27.2773 66.25V38.25Z" fill="url(#paint1_linear_238_3521)"/>
</mask>
<g mask="url(#mask0_238_3521)">
<path d="M72.2773 38.25V45.75H68.5273V38.25H72.2773Z" fill="#135298"/>
<path d="M72.2773 68.25V42L25.4023 68.25H72.2773Z" fill="url(#paint2_linear_238_3521)"/>
<path d="M27.2773 68.25V42L74.1523 68.25H27.2773Z" fill="url(#paint3_linear_238_3521)"/>
</g>
<path d="M27.2773 31.875C27.2773 30.2181 28.6205 28.875 30.2773 28.875H46.7773C48.4342 28.875 49.7773 30.2181 49.7773 31.875V59.625C49.7773 61.2819 48.4342 62.625 46.7773 62.625H27.2773V31.875Z" fill="black" fill-opacity="0.3"/>
<rect x="12.2773" y="25.125" width="33.75" height="33.75" rx="2" fill="url(#paint4_linear_238_3521)"/>
<path d="M38.5273 42.1298V41.8182C38.5273 36.4166 34.6409 32.625 29.182 32.625C23.6935 32.625 19.7773 36.4425 19.7773 41.8702V42.1818C19.7773 47.5834 23.6638 51.375 29.1523 51.375C34.6112 51.375 38.5273 47.5575 38.5273 42.1298ZM34.1069 42.1818C34.1069 45.7656 32.0894 47.9211 29.182 47.9211C26.2746 47.9211 24.2275 45.7136 24.2275 42.1298V41.8182C24.2275 38.2344 26.2449 36.0789 29.1523 36.0789C32.0301 36.0789 34.1069 38.2864 34.1069 41.8702V42.1818Z" fill="white"/>
</g>
<defs>
<linearGradient id="paint0_linear_238_3521" x1="31.0273" y1="42" x2="68.5273" y2="42" gradientUnits="userSpaceOnUse">
<stop stop-color="#064484"/>
<stop offset="1" stop-color="#0F65B5"/>
</linearGradient>
<linearGradient id="paint1_linear_238_3521" x1="27.2773" y1="62.1923" x2="72.2773" y2="62.1923" gradientUnits="userSpaceOnUse">
<stop stop-color="#1B366F"/>
<stop offset="1" stop-color="#2657B0"/>
</linearGradient>
<linearGradient id="paint2_linear_238_3521" x1="72.2773" y1="55.125" x2="27.2773" y2="55.125" gradientUnits="userSpaceOnUse">
<stop stop-color="#44DCFD"/>
<stop offset="0.453125" stop-color="#259ED0"/>
</linearGradient>
<linearGradient id="paint3_linear_238_3521" x1="27.2773" y1="55.125" x2="72.2773" y2="55.125" gradientUnits="userSpaceOnUse">
<stop stop-color="#259ED0"/>
<stop offset="1" stop-color="#44DCFD"/>
</linearGradient>
<linearGradient id="paint4_linear_238_3521" x1="12.2773" y1="42" x2="46.0273" y2="42" gradientUnits="userSpaceOnUse">
<stop stop-color="#064484"/>
<stop offset="1" stop-color="#0F65B5"/>
</linearGradient>
<clipPath id="clip0_238_3521">
<rect width="60" height="60" fill="white" transform="translate(12.2773 12)"/>
</clipPath>
</defs>
</svg>
