<svg width="56" height="32" viewBox="0 0 56 32" fill="none" xmlns="http://www.w3.org/2000/svg">
<path id="Vector" d="M40.8871 23.9073C39.6013 23.9073 38.5554 22.8457 38.5554 21.5416C38.5554 20.2375 39.6013 19.1767 40.8871 19.1767C42.1731 19.1767 43.219 20.2373 43.219 21.5416C43.219 22.8459 42.1731 23.9073 40.8871 23.9073ZM15.1129 23.9073C13.8271 23.9073 12.7812 22.8457 12.7812 21.5416C12.7812 20.2375 13.8269 19.1767 15.1129 19.1767C16.3987 19.1767 17.4446 20.2373 17.4446 21.5416C17.4446 22.8459 16.3989 23.9073 15.1129 23.9073ZM41.7234 9.66092L46.3838 1.47453C46.5121 1.24861 46.5468 0.980294 46.4803 0.728467C46.4137 0.47664 46.2514 0.261867 46.0289 0.131273C45.8062 0.0012208 45.5416 -0.0339205 45.2934 0.0335562C45.0451 0.101033 44.8333 0.265618 44.7045 0.49122L39.9859 8.78107C36.3771 7.11098 32.3245 6.18048 28 6.18048C23.6755 6.18048 19.6229 7.11098 16.0144 8.78107L11.2955 0.49122C11.1667 0.265618 10.9549 0.101033 10.7066 0.0335562C10.4584 -0.0339205 10.1938 0.0012208 9.97107 0.131273C9.74846 0.261744 9.58603 0.47652 9.51949 0.728398C9.45294 0.980276 9.48771 1.24865 9.61617 1.47453L14.2766 9.66092C6.27398 14.0753 0.800707 22.2922 0 32H56C55.1987 22.2924 49.7254 14.0753 41.7234 9.6607" fill="white"/>
</svg>
