<svg width="42" height="50" viewBox="0 0 42 50" fill="none" xmlns="http://www.w3.org/2000/svg">
<g id="Group">
<path id="Vector" d="M21.0595 12.0918C22.1313 12.0918 25.6064 11.4097 28.3021 7.47987C30.6081 4.06967 30.3482 0.269724 30.3482 0.269724C30.3482 0.269724 26.3534 -0.0225791 22.8458 4.32949C20.3125 7.51235 20.5074 12.0593 20.5074 12.0593C20.5074 12.0593 20.7022 12.0918 21.0595 12.0918Z" fill="white"/>
<path id="Vector_2" d="M41.0986 37.0674C41.2935 36.5153 41.4234 36.1905 41.4234 36.1905C41.4234 36.1905 41.4234 36.1905 41.3909 36.1905C41.3909 36.1905 41.3584 36.1905 41.3259 36.158C41.1311 36.0931 40.6764 35.8982 40.0918 35.5409C38.9226 34.8589 37.2987 33.5922 36.1294 31.5461C35.3824 30.247 34.8628 28.6231 34.7329 26.6094C34.6679 25.6026 34.7654 24.6283 34.9602 23.7514V23.7189C35.0252 23.4266 35.0901 23.1668 35.1876 22.8745C36.2269 19.4967 38.6627 17.2882 39.6371 16.5412C39.8969 16.3463 40.0268 16.2489 40.0268 16.2489C40.0268 16.2489 36.9089 11.4097 31.0304 11.4097C25.9638 11.4097 24.0801 13.6831 21.3844 13.6831C18.0716 13.6831 17.5519 11.5721 12.6477 11.5721C10.1144 11.5721 6.57433 12.5464 3.9436 15.9566C1.865 18.6198 1.08552 21.7702 0.760743 24.0761C0.565874 25.6351 0.500917 27.324 0.695786 29.2077C0.695786 29.3376 0.728263 29.4675 0.728263 29.6299C0.923132 31.5136 1.41031 33.5273 2.09235 35.5409C2.09235 35.5734 2.12482 35.6384 2.1573 35.6708C2.22226 35.8982 2.31969 36.158 2.41713 36.3854C2.44961 36.4828 2.51456 36.6127 2.54704 36.7101C2.57952 36.8076 2.612 36.9375 2.67695 37.0349C3.32651 38.7238 4.07351 40.3477 4.95042 41.8742C7.48372 46.3562 10.764 49.7339 13.8494 49.7339C17.3571 49.7339 18.4613 47.4604 21.969 47.4929C26.4185 47.5254 27.6527 50.351 31.3876 49.604C33.8885 49.1168 36.8764 45.5767 38.7927 42.1989C38.8576 42.069 38.9226 41.9716 38.9875 41.8742C39.8969 39.9255 40.6764 38.1067 41.0986 37.0674Z" fill="white"/>
</g>
</svg>
