<svg width="46" height="46" viewBox="0 0 46 46" fill="none" xmlns="http://www.w3.org/2000/svg">
<path id="Vector" fill-rule="evenodd" clip-rule="evenodd" d="M5.54363 8.0167C16.2301 -4.43054 36.0665 -1.97986 43.4723 12.5719H25.6707C22.4593 12.5719 20.3829 12.5027 18.1404 13.6796C15.4964 15.0641 13.517 17.6394 12.811 20.6716L5.54363 8.0167ZM15.3442 23.0116C15.3442 27.2345 18.7633 30.6544 22.9853 30.6682C27.2073 30.6682 30.6264 27.2345 30.6264 23.0116C30.6264 18.7886 27.2073 15.3687 22.9853 15.3549C18.7633 15.3687 15.3442 18.7886 15.3442 23.0116ZM25.9476 33.022C21.6564 34.2958 16.6315 32.8835 13.8907 28.1344C11.7866 24.5069 6.2496 14.8426 3.73026 10.4535C-5.10131 23.9946 2.51211 42.437 18.5418 45.58L25.9476 33.022ZM30.0865 15.3549C33.6579 18.6779 34.4331 24.0638 32.0245 28.2314C30.1973 31.3743 24.3834 41.2047 21.5595 45.9538C38.0737 46.9784 50.1167 30.779 44.6766 15.3411L30.0865 15.3549Z" fill="white"/>
</svg>
