<svg width="46" height="54" viewBox="0 0 46 54" fill="none" xmlns="http://www.w3.org/2000/svg">
<path id="Vector" d="M22.2087 13.6359C22.2087 13.8089 22.0358 13.8089 22.0358 13.8089H21.8629C21.69 13.8089 21.69 13.6359 21.517 13.4628C21.517 13.4628 21.3441 13.2897 21.3441 13.1166C21.3441 12.9436 21.3441 12.9436 21.517 12.9436L21.8629 13.1166C22.0358 13.2897 22.2087 13.4628 22.2087 13.6359ZM19.096 11.9051C19.096 11.0397 18.7501 10.5205 18.2313 10.5205C18.2313 10.5205 18.2313 10.6936 18.0584 10.6936V11.0397H18.5772C18.5772 11.3859 18.7501 11.5589 18.7501 11.9051H19.096ZM25.1486 11.0397C25.4945 11.0397 25.6674 11.3859 25.8403 11.9051H26.1862C26.0133 11.732 26.0133 11.5589 26.0133 11.3859C26.0133 11.2128 26.0133 11.0397 25.8403 10.8666C25.6674 10.6936 25.4945 10.5205 25.3215 10.5205C25.3215 10.5205 25.1486 10.6936 24.9757 10.6936C24.9757 10.8666 25.1486 10.8666 25.1486 11.0397ZM19.9606 13.8089C19.7877 13.8089 19.7877 13.8089 19.7877 13.6359C19.7877 13.4628 19.7877 13.2897 19.9606 13.1166C20.3065 13.1166 20.4794 12.9436 20.4794 12.9436C20.6524 12.9436 20.6524 13.1166 20.6524 13.1166C20.6524 13.2897 20.4794 13.4628 20.1336 13.8089H19.9606ZM18.0584 13.6359C17.3666 13.2897 17.1937 12.7705 17.1937 11.9051C17.1937 11.3859 17.1937 11.0397 17.5396 10.6936C17.7125 10.3474 18.0584 10.1743 18.4042 10.1743C18.7501 10.1743 18.923 10.3474 19.2689 10.6936C19.4418 11.2128 19.6148 11.732 19.6148 12.2513V12.5974H19.7877V12.4243C19.9606 12.4243 19.9606 12.0782 19.9606 11.3859C19.9606 10.8666 19.9606 10.3474 19.6148 9.82818C19.2689 9.30895 18.923 8.96279 18.2313 8.96279C17.7125 8.96279 17.1937 9.30895 17.0208 9.82818C16.6749 10.5205 16.6057 11.0397 16.6057 11.9051C16.6057 12.5974 16.8478 13.2897 17.5396 13.982C17.7125 13.8089 17.8854 13.8089 18.0584 13.6359ZM39.6749 38.0397C39.8478 38.0397 39.8478 37.9705 39.8478 37.8147C39.8478 37.4339 39.6749 36.9839 39.1561 36.482C38.6373 35.9628 37.7727 35.6339 36.7351 35.4955C36.5621 35.4782 36.3892 35.4782 36.3892 35.4782C36.2163 35.4436 36.2163 35.4436 36.0433 35.4436C35.8704 35.4263 35.5245 35.3916 35.3516 35.357C35.8704 33.7474 36.0433 32.3282 36.0433 31.082C36.0433 29.3513 35.6975 28.1397 35.0057 27.1013C34.314 26.0628 33.6223 25.5436 32.7576 25.3705C32.5847 25.5436 32.5847 25.5436 32.5847 25.7166C33.4493 26.0628 34.314 26.7551 34.8328 27.7936C35.3516 29.0051 35.5245 30.0436 35.5245 31.2551C35.5245 32.2243 35.3516 33.6609 34.6599 35.4955C33.9681 35.7724 33.2764 36.4128 32.7576 37.4166C32.7576 37.5724 32.7576 37.6589 32.9305 37.6589C32.9305 37.6589 33.1035 37.5032 33.2764 37.2089C33.6223 36.9147 33.7952 36.6205 34.1411 36.3263C34.6599 36.032 35.0057 35.8763 35.5245 35.8763C36.3892 35.8763 37.2539 35.9974 37.7727 36.2397C38.4644 36.4647 38.8102 36.707 38.9832 36.9839C39.1561 37.2436 39.329 37.4859 39.502 37.7109C39.502 37.9359 39.6749 38.0397 39.6749 38.0397ZM23.7651 12.9436C23.5922 12.7705 23.5922 12.4243 23.5922 12.0782C23.5922 11.3859 23.5922 11.0397 23.9381 10.5205C24.2839 10.1743 24.6298 10.0013 24.9757 10.0013C25.4945 10.0013 25.8403 10.3474 26.1862 10.6936C26.3591 11.2128 26.5321 11.5589 26.5321 12.0782C26.5321 12.9436 26.1862 13.4628 25.4945 13.6359C25.4945 13.6359 25.6674 13.8089 25.8403 13.8089C26.1862 13.8089 26.3591 13.982 26.705 14.1551C26.8779 13.1166 27.0509 12.4243 27.0509 11.5589C27.0509 10.5205 26.8779 9.82818 26.5321 9.30895C26.0133 8.78972 25.4945 8.61664 24.8027 8.61664C24.2839 8.61664 23.7651 8.78972 23.2463 9.13587C22.9005 9.6551 22.7275 10.0013 22.7275 10.5205C22.7275 11.3859 22.9005 12.0782 23.2463 12.7705C23.4193 12.7705 23.5922 12.9436 23.7651 12.9436ZM25.8403 15.7128C23.5922 17.2705 21.8629 17.9628 20.4794 17.9628C19.2689 17.9628 18.0584 17.4436 17.0208 16.5782C17.1937 16.9243 17.3666 17.2705 17.5396 17.4436L18.5772 18.482C19.2689 19.1743 20.1336 19.5205 20.9982 19.5205C22.2087 19.5205 23.5922 18.8282 25.3215 17.6166L26.8779 16.5782C27.2238 16.232 27.5696 15.8859 27.5696 15.3666C27.5696 15.1936 27.5696 15.0205 27.3967 15.0205C27.2238 14.6743 26.3591 14.1551 24.6298 13.6359C23.0734 12.9436 21.8629 12.5974 21.1712 12.5974C20.6524 12.5974 19.7877 12.9436 18.5772 13.6359C17.5396 14.3282 16.8478 15.0205 16.8478 15.7128C16.8478 15.7128 17.0208 15.8859 17.1937 16.232C18.2313 17.0974 19.2689 17.6166 20.3065 17.6166C21.69 17.6166 23.4193 16.9243 25.6674 15.1936V15.5397C25.8403 15.5397 25.8403 15.7128 25.8403 15.7128ZM29.8178 50.6743C30.5095 51.9759 31.72 52.6301 33.1035 52.6301C33.4493 52.6301 33.7952 52.5782 34.1411 52.4743C34.4869 52.4051 34.8328 52.2839 35.0057 52.1455C35.1787 52.0243 35.3516 51.9032 35.5245 51.7647C35.8704 51.6436 35.8704 51.557 36.0433 51.4705L38.9832 48.9262C39.6749 48.3741 40.3666 47.8913 41.2313 47.4724C41.923 47.057 42.6148 46.7801 42.9606 46.6243C43.4794 46.4859 43.8253 46.2782 44.1712 46.0013C44.3441 45.7416 44.517 45.4128 44.517 44.9974C44.517 44.4955 44.1712 44.1147 43.8253 43.8378C43.4794 43.5609 43.1336 43.3705 42.7877 43.2493C42.4418 43.1282 42.096 42.8513 41.5772 42.3839C41.2313 41.9339 40.8854 41.3109 40.7125 40.4974L40.5396 39.4936C40.3666 39.0263 40.3666 38.6801 40.1937 38.4897C40.1937 38.4378 40.1937 38.4205 40.0208 38.4205C39.8478 38.4205 39.502 38.5763 39.329 38.8705C38.9832 39.1647 38.6373 39.4936 38.2915 39.8397C38.1185 40.1859 37.5997 40.4974 37.2539 40.7916C36.7351 41.0859 36.2163 41.2416 35.8704 41.2416C34.4869 41.2416 33.7952 40.8609 33.2764 40.1166C32.9305 39.5628 32.7576 38.9224 32.5847 38.1955C32.2388 37.9013 32.0659 37.7455 31.72 37.7455C30.8554 37.7455 30.5095 38.6455 30.5095 40.4628V45.8455C30.5095 46.0013 30.3366 46.3474 30.3366 46.8839C30.1636 47.4205 30.1636 48.0297 30.1636 48.7186L29.8178 50.6397V50.6691M4.74258 49.7536C6.35085 49.9889 8.20123 50.4926 10.2937 51.2611C12.3862 52.0226 13.6659 52.4207 14.1328 52.4207C15.3433 52.4207 16.3463 51.8841 17.1764 50.8474C17.3493 50.5116 17.3493 50.117 17.3493 49.6636C17.3493 48.028 16.3636 45.9597 14.3922 43.4501L13.2163 41.8751C12.9742 41.5463 12.6802 41.0443 12.2997 40.3693C11.9366 39.6943 11.608 39.1751 11.3486 38.8116C11.1238 38.4136 10.7606 38.0155 10.2937 37.6174C9.84408 37.2193 9.32529 36.9597 8.75461 36.8213C8.0283 36.9597 7.52679 37.202 7.28469 37.5309C7.04258 37.8597 6.90423 38.2232 6.86965 38.6039C6.81777 38.9674 6.71401 39.2097 6.54108 39.3309C6.36815 39.4347 6.07416 39.5213 5.67642 39.6078C5.58995 39.6078 5.43431 39.6078 5.2095 39.6251H4.74258C3.82604 39.6251 3.20348 39.7289 2.87491 39.902C2.44258 40.4039 2.21777 40.9751 2.21777 41.5809C2.21777 41.8578 2.28694 42.3251 2.42529 42.9828C2.56363 43.6232 2.63281 44.1424 2.63281 44.5059C2.63281 45.2155 2.42529 45.9251 1.99296 46.6347C1.56063 47.3789 1.33581 47.9328 1.33581 48.3274C1.50875 48.9989 2.6501 49.4714 4.74258 49.7484M10.5012 34.0157C10.5012 32.8214 10.8125 31.5061 11.4524 29.9484C12.0749 28.3907 12.6975 27.3522 13.3027 26.6599C13.2681 26.4868 13.1817 26.4868 13.0433 26.4868L12.8704 26.3138C12.3689 26.833 11.7636 28.0445 11.0373 29.7753C10.311 31.333 9.93055 32.7695 9.93055 33.8253C9.93055 34.6041 10.1208 35.2791 10.4666 35.8676C10.8471 36.4388 11.7636 37.2695 13.2163 38.3253L15.0493 39.5195C17.0035 41.2157 18.0411 42.3926 18.0411 43.0849C18.0411 43.4484 17.8681 43.8118 17.3493 44.2099C17.0035 44.6253 16.5366 44.833 16.1388 44.833C16.1042 44.833 16.0869 44.8676 16.0869 44.9541C16.0869 44.9714 16.2599 45.3176 16.623 45.9926C17.3493 46.9791 18.9057 47.4638 20.9809 47.4638C24.7854 47.4638 27.7253 45.9061 29.9734 42.7907C29.9734 41.9253 29.9734 41.3888 29.8005 41.1638V40.5234C29.8005 39.3984 29.9734 38.5503 30.3193 37.9964C30.6651 37.4426 31.011 37.183 31.5298 37.183C31.8757 37.183 32.2215 37.3041 32.5674 37.5638C32.7403 36.2311 32.7403 35.0714 32.7403 34.033C32.7403 32.458 32.7403 31.1599 32.3945 29.9484C32.2215 28.9099 31.8757 28.0445 31.5298 27.3522L30.4922 25.7945C30.1463 25.2753 29.9734 24.7561 29.6275 24.2368C29.4546 23.5445 29.2817 23.0253 29.2817 22.1599C28.7629 21.2945 28.417 20.4291 27.8982 19.5638C27.5524 18.6984 27.2065 17.833 26.8606 17.1407L25.3042 18.3522C23.5749 19.5638 22.1915 20.083 20.9809 20.083C19.9433 20.083 19.0787 19.9099 18.5599 19.2176L17.5223 18.3522C17.5223 18.8714 17.3493 19.5638 17.0035 20.2561L15.914 22.333C15.4298 23.5445 15.1704 24.2368 15.1185 24.7561C15.0493 25.1022 14.9975 25.4484 14.9629 25.4484L13.6659 28.0445C12.2651 30.6407 11.5561 33.0464 11.5561 35.0368C11.5561 35.4349 11.5907 35.8503 11.6599 36.2657C10.8817 35.7291 10.5012 34.9849 10.5012 34.0157ZM22.8832 50.3888C20.6351 50.3888 18.9057 50.6934 17.6952 51.2974V51.2455C16.8306 52.2839 15.8621 52.8205 14.5133 52.8205C13.6659 52.8205 12.3343 52.4916 10.5358 51.8339C8.72003 51.2109 7.11175 50.7332 5.711 50.4182C5.57266 50.3784 5.26138 50.3195 4.75987 50.2399C4.27566 50.162 3.82604 50.0824 3.42829 50.0028C3.06514 49.9249 2.6501 49.8072 2.20048 49.648C1.76814 49.5112 1.42228 49.333 1.16288 49.1166C0.924235 48.8986 0.806641 48.6528 0.806641 48.3776C0.806641 48.1007 0.865438 47.8047 0.983032 47.4897C1.09371 47.2993 1.21476 47.1089 1.33581 46.9359C1.45687 46.7455 1.56063 46.5724 1.6298 46.3993C1.73356 46.2436 1.80273 46.0878 1.8719 45.9147C1.94108 45.7589 2.01025 45.6032 2.04484 45.4128C2.07942 45.2397 2.11401 45.0666 2.11401 44.8936C2.11401 44.7205 2.04484 44.2013 1.90649 43.2839C1.76814 42.3839 1.69897 41.8128 1.69897 41.5705C1.69897 40.8089 1.8719 40.2032 2.25236 39.7705C2.63281 39.3378 2.99596 39.1128 3.37642 39.1128H5.36514C5.52078 39.1128 5.76288 39.0263 6.12604 38.8186C6.24709 38.5416 6.35085 38.3166 6.42002 38.1089C6.50649 37.9013 6.54108 37.7455 6.57566 37.6763C6.61025 37.5724 6.64484 37.4686 6.67942 37.382C6.7486 37.2609 6.83506 37.1224 6.95611 36.9839C6.81777 36.8109 6.7486 36.5859 6.7486 36.3089C6.7486 36.1186 6.7486 35.9455 6.78318 35.8416C6.78318 35.2186 7.07717 34.3359 7.69972 33.1763L8.30499 32.0859C8.80649 31.1513 9.18694 30.4589 9.46363 29.7666C9.75762 29.0743 10.0689 28.0359 10.4148 26.6513C10.6915 25.4397 11.3486 24.2282 12.3862 23.0166L13.6832 21.4589C14.5824 20.4205 15.1704 19.5551 15.499 18.8628C15.8275 18.1705 16.0005 17.3051 16.0005 16.6128C16.0005 16.2666 15.914 15.2282 15.7238 13.4974C15.5509 11.7666 15.4644 10.0359 15.4644 8.47818C15.4644 7.26664 15.5681 6.40125 15.793 5.53587C16.0178 4.67049 16.4155 3.8051 17.0035 3.11279C17.5223 2.42049 18.214 1.72818 19.2516 1.38202C20.2892 1.03587 21.4997 0.862793 22.8832 0.862793C23.402 0.862793 23.9208 0.862793 24.4396 1.03587C24.9584 1.03587 25.6501 1.20895 26.5148 1.5551C27.2065 1.90125 27.8982 2.24741 28.417 2.76664C29.1087 3.28587 29.6275 4.15125 30.1463 5.01664C30.4922 6.0551 30.8381 7.09356 31.011 8.47818C31.1839 9.34356 31.1839 10.2089 31.3569 11.4205C31.3569 12.4589 31.5298 13.1513 31.5298 13.6705C31.7027 14.1897 31.7027 14.882 31.8757 15.7474C32.0486 16.4397 32.2215 17.132 32.5674 17.6513C32.9133 18.3436 33.2591 19.0359 33.7779 19.7282C34.2967 20.5936 34.9884 21.4589 35.6802 22.4974C37.2366 24.2282 38.4471 26.132 39.1388 28.0359C40.0035 29.7666 40.5223 32.0166 40.5223 34.4224C40.5223 35.6166 40.3493 36.7763 40.0035 37.9013C40.3493 37.9013 40.5223 38.0397 40.6952 38.282C40.8681 38.5243 41.0411 39.0436 41.214 39.857L41.3869 41.1378C41.5599 41.5186 41.7328 41.882 42.2516 42.1936C42.5975 42.5051 42.9433 42.7647 43.4621 42.9724C43.808 43.1455 44.3268 43.3878 44.6727 43.6993C45.0185 44.0455 45.1915 44.4089 45.1915 44.7897C45.1915 45.3782 45.0185 45.8109 44.6727 46.1224C44.3268 46.4686 43.9809 46.7109 43.4621 46.8666C43.1163 47.0397 42.4245 47.3859 41.3869 47.8739C40.5223 48.3862 39.6576 49.0076 38.793 49.7432L37.0636 51.2161C36.3719 51.8911 35.6802 52.3757 35.1614 52.6699C34.6426 52.9814 33.9509 53.1372 33.2591 53.1372L32.0486 52.9987C30.6651 52.6353 29.8005 51.943 29.2817 50.8872C26.5148 50.5514 24.2666 50.3853 22.8832 50.3853" fill="white"/>
</svg>
