<svg width="73" height="43" viewBox="0 0 73 43" fill="none" xmlns="http://www.w3.org/2000/svg">
<g id="Quote_02">
<g id="Group">
<path id="Vector" d="M32.7174 16.5708C32.7174 7.05009 24.7935 -0.59267 15.2638 0.0362199C7.34423 0.558112 0.836584 6.92999 0.0778252 14.9331C-0.790868 24.0978 5.71894 31.9109 14.2938 33.0071V42.2243C14.2938 42.7636 14.8262 43.1414 15.3241 42.9492C19.2042 41.4513 32.7174 34.9222 32.7174 16.6647H32.7152C32.7152 16.6341 32.7174 16.6014 32.7174 16.5708Z" fill="#34A853"/>
<path id="Vector_2" d="M72.9127 16.5708C72.9127 7.05009 64.9888 -0.59267 55.4591 0.0362199C47.5395 0.558112 41.0319 6.92999 40.2731 14.9331C39.4044 24.0978 45.9143 31.9109 54.4891 33.0071V42.2243C54.4891 42.7636 55.0215 43.1414 55.5194 42.9492C59.3995 41.4513 72.9127 34.9222 72.9127 16.6647H72.9106C72.9106 16.6341 72.9127 16.6014 72.9127 16.5708Z" fill="#34A853"/>
</g>
</g>
</svg>
