<svg width="170" height="46" viewBox="0 0 170 46" fill="none" xmlns="http://www.w3.org/2000/svg">
<path d="M59.8326 45.2924C59.4103 45.2059 59.1726 45.03 58.9887 44.6683L58.842 44.3796V29.1188C58.842 12.7104 58.8275 13.3468 59.2179 12.749C60.6204 10.6015 69.5377 9.11134 74.7333 10.1562C80.9159 11.3995 83.2792 15.0644 83.271 23.396C83.265 29.1936 82.4287 32.0535 80.0721 34.3315C76.5752 37.7117 69.0251 37.5955 66.2799 34.1191C66.1033 33.8955 65.9355 33.7107 65.9069 33.7085C65.8784 33.7061 65.8453 36.1228 65.8335 39.0787L65.8121 44.453L65.6654 44.7464C65.5675 44.9421 65.4208 45.0888 65.2251 45.1866L64.9317 45.3334L62.5472 45.3467C61.2357 45.354 60.0141 45.3297 59.8326 45.2924ZM72.8155 31.1808C75.2282 30.5035 76.0729 28.7547 76.1692 24.2376C76.2782 19.1232 75.5985 16.9092 73.6145 15.9167C71.7779 14.9979 67.3316 15.3228 66.1326 16.4634L65.8431 16.7388L65.8658 21.8283L65.8887 26.9177L66.0491 27.4863C66.8763 30.4179 69.8158 32.0229 72.8155 31.1808ZM10.5981 36.788C6.55823 36.3941 4.49149 34.5635 3.80331 30.7696C3.69113 30.1512 3.6739 29.3227 3.65043 23.4222L3.62398 16.7718L2.25221 16.7442C0.740457 16.7138 0.462654 16.6444 0.151475 16.219L0 16.0119V14.7754V13.539L0.153485 13.3317C0.384191 13.0201 0.71358 12.825 1.37945 12.6055C2.5733 12.2118 3.00592 11.903 3.35407 11.196L3.59509 10.7065L3.63202 8.32037L3.66895 5.93423L3.86693 5.5307C4.23429 4.78195 7.07093 3.3582 8.8476 3.03084C10.5442 2.71822 10.6009 2.86704 10.6014 7.63744L10.602 11.2483L14.2154 11.2692L17.8288 11.2901L18.1072 11.4284C18.6163 11.6814 18.6359 11.7752 18.6359 13.9681C18.6359 16.9497 18.9678 16.7551 13.8824 16.7557L10.5964 16.7563L10.6207 22.9009C10.6465 29.417 10.6422 29.3341 10.9893 30.0049C11.5639 31.1155 13.2567 31.3875 15.4384 30.7197C18.1845 29.8791 18.1524 29.8677 18.939 31.9605C19.8148 34.2902 19.7859 34.6656 18.683 35.2937C16.9087 36.304 13.0147 37.0237 10.5981 36.788ZM112.922 36.782C106.693 36.2628 103.629 33.1417 103.117 26.7938C102.237 15.8828 104.903 10.9707 112.255 9.96192C119.027 9.03266 124.41 10.8086 126.33 14.6052C128.194 18.2898 128.192 27.975 126.327 31.6783C124.341 35.6219 119.79 37.3545 112.922 36.782ZM117.126 31.1764C119.803 30.603 120.47 29.0598 120.471 23.4322C120.472 16.7866 119.57 15.3429 115.41 15.3429C111.255 15.3429 110.214 16.9414 110.211 23.3221C110.208 27.9346 110.653 29.5426 112.218 30.5815C113.303 31.3015 115.371 31.5523 117.126 31.1764ZM94.8296 36.6641C91.683 36.3643 89.9209 35.0332 89.1535 32.3763C88.7642 31.0284 88.7766 31.5477 88.7766 16.5722V2.63206L88.9233 2.33859C89.0212 2.14293 89.1679 1.99619 89.3636 1.89837L89.657 1.75163H92.225H94.7929L95.0864 1.89837C95.282 1.99621 95.4287 2.14293 95.5266 2.33859L95.6733 2.63206L95.7102 15.9852L95.7473 29.3384L95.8824 29.742C96.2596 30.8689 96.979 31.2345 98.2779 30.9592C99.7758 30.6418 99.9747 30.8133 100.737 33.0802C101.401 35.055 101.273 35.4656 99.8186 36.0411C98.5877 36.528 96.3433 36.8083 94.8296 36.6641ZM24.0946 36.2745C23.5912 36.1848 23.2994 36.005 23.1605 35.6989L23.0379 35.4287V23.3594V11.2902L23.1794 11.0052C23.2818 10.7987 23.4133 10.6774 23.6563 10.565L23.9917 10.4098H26.1194H28.2471L28.5515 10.5726C28.9852 10.8045 29.1212 11.0767 29.4795 12.4297C29.857 13.8552 29.8411 13.8438 30.379 13.0727C32.4001 10.1757 35.4198 9.18198 39.2572 10.1511C41.5829 10.7385 41.7023 11.1785 40.5341 14.8553C39.8554 16.9915 39.5748 17.1286 37.3815 16.3955C33.4051 15.0664 31.0844 16.1995 30.2565 19.8744L30.0912 20.6081L30.0495 28.0184L30.0079 35.4287L29.8465 35.7304C29.7438 35.9223 29.5836 36.0824 29.4063 36.1705L29.1275 36.3089L26.7797 36.3217C25.4884 36.3289 24.2801 36.3076 24.0946 36.2745ZM45.7457 36.2673C45.3237 36.1812 45.0858 36.0054 44.9019 35.6436L44.7551 35.3548V23.3222V11.2896L44.9066 11.0009C45.0006 10.8217 45.1676 10.6547 45.3468 10.5607L45.6356 10.4092H48.2402H50.8448L51.1465 10.5706C51.3384 10.6733 51.4986 10.8335 51.5867 11.0108L51.7252 11.2896L51.7458 22.992C51.7696 36.5381 51.809 35.7812 51.0602 36.1618L50.7714 36.3085L48.4236 36.3215C47.1323 36.3287 45.9273 36.3043 45.7457 36.2673ZM45.7385 7.2168C44.76 7.05128 44.718 6.92951 44.7201 4.26315L44.7213 2.19196L44.8641 1.87738C45.1178 1.31854 45.1568 1.31201 48.2397 1.31201H50.9177L51.2091 1.45876C51.3708 1.5401 51.5668 1.71982 51.6493 1.86228L51.7981 2.11907V4.28346V6.44784L51.6682 6.68562C51.4901 7.01149 51.2919 7.12353 50.7343 7.21353C50.1919 7.30101 46.2513 7.30369 45.7385 7.2168Z" fill="white"/>
<path d="M138.268 19.7678C141.403 19.7678 143.944 17.2265 143.944 14.0917C143.944 10.9568 141.403 8.41553 138.268 8.41553C135.133 8.41553 132.592 10.9568 132.592 14.0917C132.592 17.2265 135.133 19.7678 138.268 19.7678Z" fill="#34A853"/>
<path d="M164.325 19.7678C167.459 19.7678 170.001 17.2265 170.001 14.0917C170.001 10.9568 167.459 8.41553 164.325 8.41553C161.19 8.41553 158.648 10.9568 158.648 14.0917C158.648 17.2265 161.19 19.7678 164.325 19.7678Z" fill="#34A853"/>
<path d="M151.295 12.0042C154.43 12.0042 156.971 9.46287 156.971 6.32802C156.971 3.19316 154.43 0.651855 151.295 0.651855C148.16 0.651855 145.619 3.19316 145.619 6.32802C145.619 9.46287 148.16 12.0042 151.295 12.0042Z" fill="#34A853"/>
</svg>
